<svg width="128" height="128" viewBox="0 0 128 128" fill="none" xmlns="http://www.w3.org/2000/svg">
<circle cx="64.0749" cy="63.9251" r="63.6257" fill="#303238"/>
<path d="M19.4441 84.0763C15.2375 76.7902 13.1341 73.1472 12.3109 69.2741C11.5825 65.8472 11.5825 62.3054 12.3109 58.8785C13.1341 55.0054 15.2375 51.3624 19.4441 44.0763L24.4202 35.4573C28.6269 28.1712 30.7302 24.5282 33.6727 21.8787C36.2763 19.5344 39.3436 17.7635 42.6756 16.6809C46.4414 15.4573 50.648 15.4573 59.0613 15.4573H69.0136C77.4268 15.4573 81.6335 15.4573 85.3993 16.6809C88.7313 17.7635 91.7985 19.5344 94.4021 21.8787C97.3447 24.5282 99.448 28.1712 103.655 35.4573L108.631 44.0763C112.837 51.3624 114.941 55.0054 115.764 58.8785C116.492 62.3054 116.492 65.8472 115.764 69.2741C114.941 73.1472 112.837 76.7902 108.631 84.0763L103.655 92.6953C99.448 99.9814 97.3447 103.624 94.4021 106.274C91.7985 108.618 88.7313 110.389 85.3993 111.472C81.6335 112.695 77.4268 112.695 69.0136 112.695H59.0612C50.648 112.695 46.4414 112.695 42.6756 111.472C39.3436 110.389 36.2763 108.618 33.6727 106.274C30.7302 103.624 28.6269 99.9813 24.4202 92.6953L19.4441 84.0763Z" fill="#AEE9E0"/>
<path d="M33.1606 81.9628C26.7916 70.9314 26.7916 57.3402 33.1606 46.3088C39.5295 35.2775 51.2998 28.4819 64.0378 28.4819C76.7757 28.4819 88.546 35.2775 94.9149 46.3088C101.284 57.3402 101.284 70.9314 94.9149 81.9628C88.546 92.9941 76.7757 99.7897 64.0378 99.7897C51.2998 99.7897 39.5295 92.9941 33.1606 81.9628Z" fill="#303238"/>
<path d="M53.639 57.2183C52.944 58.3348 51.8047 61.4167 50.221 66.4639C50.597 66.4867 51.1552 66.498 51.8958 66.498C54.1744 66.498 56.0942 65.7176 57.6551 64.1567C59.2273 62.5959 60.0135 60.5679 60.0135 58.0728C60.0135 54.4269 57.8203 52.604 53.4339 52.604C51.7021 52.604 50.0273 52.7293 48.4095 52.98C46.803 53.2306 45.5327 53.5041 44.5984 53.8003C43.6642 54.0965 42.804 54.37 42.0179 54.6206C41.2317 54.8713 40.7133 54.9966 40.4627 54.9966C39.893 54.9966 39.6082 54.7915 39.6082 54.3813C39.6082 53.9712 39.9956 53.5553 40.7703 53.1338C41.5564 52.7008 42.4508 52.285 43.4534 51.8862C44.456 51.4761 45.6979 51.0488 47.179 50.6045C50.54 49.5791 54.1801 49.0664 58.0994 49.0664C63.2719 49.0664 66.7924 50.2171 68.6609 52.5186C69.6749 53.7604 70.1819 55.2586 70.1819 57.0132C70.1819 60.34 68.7977 63.0858 66.0291 65.2505C63.6707 67.0962 60.6059 68.2697 56.8348 68.771C55.7296 68.9191 54.465 68.9932 53.0408 68.9932C51.6281 68.9932 50.4546 68.8963 49.5203 68.7026C49.0418 70.2407 48.6658 71.4142 48.3924 72.2231C48.1303 73.0321 47.8341 73.6815 47.5037 74.1714C47.1733 74.6613 46.8201 75.0487 46.4441 75.3335C46.0796 75.6183 45.6124 75.8348 45.0428 75.9829C44.1427 76.2222 42.9407 76.3418 41.4368 76.3418C39.9443 76.3418 38.5258 76.1766 37.1814 75.8462C35.837 75.5158 34.7718 75.1113 33.9856 74.6328C33.1881 74.1543 32.7894 73.6872 32.7894 73.2314C32.7894 72.9694 32.9033 72.7586 33.1312 72.5991C33.359 72.4396 33.6211 72.3599 33.9173 72.3599C34.9655 72.3599 35.7402 72.1947 36.2415 71.8643C36.7542 71.5225 37.2441 70.8958 37.7112 69.9844C38.1897 69.0729 38.6626 68.0133 39.1297 66.8057C39.6082 65.5866 40.0525 64.4587 40.4627 63.4219C40.8729 62.3737 41.34 61.3084 41.8641 60.2261C43.0148 57.8563 44.3763 56.3011 45.9485 55.5605C46.7119 55.196 47.7088 54.9168 48.9393 54.7231C50.1697 54.5181 51.1325 54.4155 51.8274 54.4155C52.5338 54.4155 52.9896 54.4269 53.1946 54.4497C53.4111 54.4611 53.6276 54.4953 53.844 54.5522C54.277 54.6662 54.4935 54.9054 54.4935 55.27C54.4935 55.5207 54.4422 55.7542 54.3396 55.9707C54.2485 56.1758 54.0149 56.5916 53.639 57.2183ZM73.6211 76.1367L66.8022 76.3076C65.6743 76.3076 65.1104 75.9202 65.1104 75.1455C65.1104 74.7923 65.2585 74.4847 65.5547 74.2227C65.8623 73.9606 66.2611 73.6644 66.751 73.334C67.2409 72.9922 67.6852 72.5479 68.084 72.001C68.4827 71.4427 68.9214 70.5085 69.3999 69.1982C69.8898 67.8766 70.2886 66.5892 70.5962 65.3359C71.576 61.3597 72.2767 58.7734 72.6982 57.5771C73.1312 56.3695 73.4559 55.4922 73.6724 54.9453C73.9002 54.387 74.1452 53.8743 74.4072 53.4072C74.6807 52.9401 74.9427 52.5299 75.1934 52.1768C75.444 51.8236 75.7402 51.5103 76.082 51.2368C76.4238 50.952 76.7485 50.7184 77.0562 50.5361C77.3752 50.3424 77.7625 50.1772 78.2183 50.0405C78.674 49.8924 79.1126 49.7785 79.5342 49.6987C79.9557 49.619 80.4798 49.5563 81.1064 49.5107C82.0521 49.4424 83.311 49.4082 84.8833 49.4082C86.4556 49.4082 87.6234 49.4823 88.3867 49.6304C89.1501 49.7785 89.5317 50.0918 89.5317 50.5703C89.5317 50.9577 89.0931 51.4191 88.2158 51.9546C87.236 52.5584 86.3701 53.5382 85.6182 54.894C84.8092 56.3752 84.1769 57.7651 83.7212 59.064C83.2655 60.3514 82.9066 61.3882 82.6445 62.1743C82.3825 62.9604 82.0635 63.9289 81.6875 65.0796C81.3115 66.2303 80.9925 67.1873 80.7305 67.9507C79.6595 71.0155 78.1955 72.9523 76.3384 73.7612C79.2095 73.6131 81.585 73.1061 83.4648 72.2402C84.4902 71.7731 85.3675 71.3345 86.0967 70.9243C86.8372 70.5142 87.6632 69.9046 88.5747 69.0957C89.771 68.0247 90.8363 67.005 91.7705 66.0366C92.7048 65.0568 93.2118 64.527 93.2915 64.4473C93.5877 64.1396 93.9466 63.9858 94.3682 63.9858C94.7897 63.9858 95.1315 64.0884 95.3936 64.2935C95.6556 64.4985 95.7866 64.7663 95.7866 65.0967C95.7866 66.4069 95.3651 68.4178 94.522 71.1294C94.2257 72.0636 93.9295 72.827 93.6333 73.4194C93.3371 74.0119 92.9554 74.5417 92.4883 75.0088C91.5996 75.8975 90.1698 76.3418 88.1987 76.3418L73.6211 76.1367Z" fill="#F2F2F2"/>
</svg>
