<svg width="475" height="130" viewBox="0 0 475 130" fill="none" xmlns="http://www.w3.org/2000/svg">
<g clip-path="url(#clip0)">
<path d="M183.925 96.048C183.925 97.488 183.453 98.648 182.509 99.528C181.565 100.408 180.149 100.848 178.261 100.848H174.877V108H173.197V91.224H178.261C180.133 91.224 181.541 91.664 182.485 92.544C183.445 93.424 183.925 94.592 183.925 96.048ZM178.261 99.408C180.885 99.408 182.197 98.288 182.197 96.048C182.197 94.928 181.885 94.08 181.261 93.504C180.637 92.928 179.637 92.64 178.261 92.64H174.877V99.408H178.261ZM188.424 97.224C188.792 96.408 189.352 95.776 190.104 95.328C190.872 94.88 191.808 94.656 192.912 94.656V96.408H192.456C191.24 96.408 190.264 96.736 189.528 97.392C188.792 98.048 188.424 99.144 188.424 100.68V108H186.744V94.896H188.424V97.224ZM201.176 108.192C199.944 108.192 198.832 107.92 197.84 107.376C196.864 106.816 196.088 106.032 195.512 105.024C194.952 104 194.672 102.808 194.672 101.448C194.672 100.088 194.96 98.904 195.536 97.896C196.112 96.872 196.896 96.088 197.888 95.544C198.88 94.984 199.992 94.704 201.224 94.704C202.456 94.704 203.568 94.984 204.56 95.544C205.568 96.088 206.352 96.872 206.912 97.896C207.488 98.904 207.776 100.088 207.776 101.448C207.776 102.792 207.488 103.976 206.912 105C206.336 106.024 205.544 106.816 204.536 107.376C203.528 107.92 202.408 108.192 201.176 108.192ZM201.176 106.728C202.04 106.728 202.84 106.536 203.576 106.152C204.312 105.752 204.904 105.16 205.352 104.376C205.816 103.576 206.048 102.6 206.048 101.448C206.048 100.296 205.824 99.328 205.376 98.544C204.928 97.744 204.336 97.152 203.6 96.768C202.864 96.368 202.064 96.168 201.2 96.168C200.336 96.168 199.536 96.368 198.8 96.768C198.064 97.152 197.472 97.744 197.024 98.544C196.592 99.328 196.376 100.296 196.376 101.448C196.376 102.6 196.592 103.576 197.024 104.376C197.472 105.16 198.056 105.752 198.776 106.152C199.512 106.536 200.312 106.728 201.176 106.728ZM216.334 94.704C217.566 94.704 218.638 94.992 219.55 95.568C220.462 96.144 221.118 96.872 221.518 97.752V94.896H223.198V108.336C223.198 109.536 222.934 110.6 222.406 111.528C221.894 112.456 221.174 113.168 220.246 113.664C219.318 114.176 218.262 114.432 217.078 114.432C215.398 114.432 213.998 114.032 212.878 113.232C211.774 112.432 211.086 111.344 210.814 109.968H212.47C212.758 110.88 213.302 111.608 214.102 112.152C214.918 112.696 215.91 112.968 217.078 112.968C217.926 112.968 218.686 112.784 219.358 112.416C220.03 112.064 220.558 111.536 220.942 110.832C221.326 110.128 221.518 109.296 221.518 108.336V105.096C221.102 105.992 220.438 106.736 219.526 107.328C218.63 107.904 217.566 108.192 216.334 108.192C215.134 108.192 214.054 107.912 213.094 107.352C212.15 106.792 211.406 106 210.862 104.976C210.334 103.952 210.07 102.768 210.07 101.424C210.07 100.08 210.334 98.904 210.862 97.896C211.406 96.872 212.15 96.088 213.094 95.544C214.054 94.984 215.134 94.704 216.334 94.704ZM221.518 101.448C221.518 100.392 221.302 99.464 220.87 98.664C220.438 97.864 219.846 97.248 219.094 96.816C218.358 96.384 217.542 96.168 216.646 96.168C215.718 96.168 214.886 96.376 214.15 96.792C213.414 97.208 212.83 97.816 212.398 98.616C211.982 99.4 211.774 100.336 211.774 101.424C211.774 102.496 211.982 103.44 212.398 104.256C212.83 105.056 213.414 105.672 214.15 106.104C214.886 106.52 215.718 106.728 216.646 106.728C217.542 106.728 218.358 106.512 219.094 106.08C219.846 105.648 220.438 105.032 220.87 104.232C221.302 103.432 221.518 102.504 221.518 101.448ZM228.713 97.224C229.081 96.408 229.641 95.776 230.393 95.328C231.161 94.88 232.097 94.656 233.201 94.656V96.408H232.745C231.529 96.408 230.553 96.736 229.817 97.392C229.081 98.048 228.713 99.144 228.713 100.68V108H227.033V94.896H228.713V97.224ZM234.961 101.424C234.961 100.08 235.225 98.904 235.753 97.896C236.297 96.872 237.041 96.088 237.985 95.544C238.945 94.984 240.025 94.704 241.225 94.704C242.473 94.704 243.545 94.992 244.441 95.568C245.353 96.144 246.009 96.88 246.409 97.776V94.896H248.089V108H246.409V105.096C245.993 105.992 245.329 106.736 244.417 107.328C243.521 107.904 242.449 108.192 241.201 108.192C240.017 108.192 238.945 107.912 237.985 107.352C237.041 106.792 236.297 106 235.753 104.976C235.225 103.952 234.961 102.768 234.961 101.424ZM246.409 101.448C246.409 100.392 246.193 99.464 245.761 98.664C245.329 97.864 244.737 97.248 243.985 96.816C243.249 96.384 242.433 96.168 241.537 96.168C240.609 96.168 239.777 96.376 239.041 96.792C238.305 97.208 237.721 97.816 237.289 98.616C236.873 99.4 236.665 100.336 236.665 101.424C236.665 102.496 236.873 103.44 237.289 104.256C237.721 105.056 238.305 105.672 239.041 106.104C239.777 106.52 240.609 106.728 241.537 106.728C242.433 106.728 243.249 106.512 243.985 106.08C244.737 105.648 245.329 105.032 245.761 104.232C246.193 103.432 246.409 102.504 246.409 101.448ZM267.524 94.656C269.06 94.656 270.308 95.144 271.268 96.12C272.244 97.08 272.732 98.48 272.732 100.32V108H271.076V100.512C271.076 99.088 270.732 98 270.044 97.248C269.356 96.496 268.42 96.12 267.236 96.12C266.004 96.12 265.02 96.528 264.284 97.344C263.548 98.16 263.18 99.344 263.18 100.896V108H261.524V100.512C261.524 99.088 261.18 98 260.492 97.248C259.804 96.496 258.86 96.12 257.66 96.12C256.428 96.12 255.444 96.528 254.708 97.344C253.972 98.16 253.604 99.344 253.604 100.896V108H251.924V94.896H253.604V97.152C254.02 96.336 254.612 95.72 255.38 95.304C256.148 94.872 257.004 94.656 257.948 94.656C259.084 94.656 260.076 94.928 260.924 95.472C261.788 96.016 262.412 96.816 262.796 97.872C263.148 96.832 263.748 96.04 264.596 95.496C265.46 94.936 266.436 94.656 267.524 94.656ZM292.063 94.656C293.599 94.656 294.847 95.144 295.807 96.12C296.783 97.08 297.271 98.48 297.271 100.32V108H295.615V100.512C295.615 99.088 295.271 98 294.583 97.248C293.895 96.496 292.959 96.12 291.775 96.12C290.543 96.12 289.559 96.528 288.823 97.344C288.087 98.16 287.719 99.344 287.719 100.896V108H286.063V100.512C286.063 99.088 285.719 98 285.031 97.248C284.343 96.496 283.399 96.12 282.199 96.12C280.967 96.12 279.983 96.528 279.247 97.344C278.511 98.16 278.143 99.344 278.143 100.896V108H276.463V94.896H278.143V97.152C278.559 96.336 279.151 95.72 279.919 95.304C280.687 94.872 281.543 94.656 282.487 94.656C283.623 94.656 284.615 94.928 285.463 95.472C286.327 96.016 286.951 96.816 287.335 97.872C287.687 96.832 288.287 96.04 289.135 95.496C289.999 94.936 290.975 94.656 292.063 94.656ZM301.842 92.424C301.506 92.424 301.218 92.304 300.978 92.064C300.738 91.824 300.618 91.528 300.618 91.176C300.618 90.824 300.738 90.536 300.978 90.312C301.218 90.072 301.506 89.952 301.842 89.952C302.178 89.952 302.466 90.072 302.706 90.312C302.946 90.536 303.066 90.824 303.066 91.176C303.066 91.528 302.946 91.824 302.706 92.064C302.466 92.304 302.178 92.424 301.842 92.424ZM302.682 94.896V108H301.002V94.896H302.682ZM312.63 94.656C314.198 94.656 315.478 95.144 316.47 96.12C317.462 97.08 317.958 98.48 317.958 100.32V108H316.302V100.512C316.302 99.088 315.942 98 315.222 97.248C314.518 96.496 313.55 96.12 312.318 96.12C311.054 96.12 310.046 96.52 309.294 97.32C308.542 98.12 308.166 99.296 308.166 100.848V108H306.486V94.896H308.166V97.128C308.582 96.328 309.182 95.72 309.966 95.304C310.75 94.872 311.638 94.656 312.63 94.656ZM327.17 94.704C328.402 94.704 329.474 94.992 330.386 95.568C331.298 96.144 331.954 96.872 332.354 97.752V94.896H334.034V108.336C334.034 109.536 333.77 110.6 333.242 111.528C332.73 112.456 332.01 113.168 331.082 113.664C330.154 114.176 329.098 114.432 327.914 114.432C326.234 114.432 324.834 114.032 323.714 113.232C322.61 112.432 321.922 111.344 321.65 109.968H323.306C323.594 110.88 324.138 111.608 324.938 112.152C325.754 112.696 326.746 112.968 327.914 112.968C328.762 112.968 329.522 112.784 330.194 112.416C330.866 112.064 331.394 111.536 331.778 110.832C332.162 110.128 332.354 109.296 332.354 108.336V105.096C331.938 105.992 331.274 106.736 330.362 107.328C329.466 107.904 328.402 108.192 327.17 108.192C325.97 108.192 324.89 107.912 323.93 107.352C322.986 106.792 322.242 106 321.698 104.976C321.17 103.952 320.906 102.768 320.906 101.424C320.906 100.08 321.17 98.904 321.698 97.896C322.242 96.872 322.986 96.088 323.93 95.544C324.89 94.984 325.97 94.704 327.17 94.704ZM332.354 101.448C332.354 100.392 332.138 99.464 331.706 98.664C331.274 97.864 330.682 97.248 329.93 96.816C329.194 96.384 328.378 96.168 327.482 96.168C326.554 96.168 325.722 96.376 324.986 96.792C324.25 97.208 323.666 97.816 323.234 98.616C322.818 99.4 322.61 100.336 322.61 101.424C322.61 102.496 322.818 103.44 323.234 104.256C323.666 105.056 324.25 105.672 324.986 106.104C325.722 106.52 326.554 106.728 327.482 106.728C328.378 106.728 329.194 106.512 329.93 106.08C330.682 105.648 331.274 105.032 331.706 104.232C332.138 103.432 332.354 102.504 332.354 101.448ZM346.135 106.632H352.159V108H344.455V91.224H346.135V106.632ZM353.789 101.424C353.789 100.08 354.053 98.904 354.581 97.896C355.125 96.872 355.869 96.088 356.813 95.544C357.773 94.984 358.853 94.704 360.053 94.704C361.301 94.704 362.373 94.992 363.269 95.568C364.181 96.144 364.837 96.88 365.237 97.776V94.896H366.917V108H365.237V105.096C364.821 105.992 364.157 106.736 363.245 107.328C362.349 107.904 361.277 108.192 360.029 108.192C358.845 108.192 357.773 107.912 356.813 107.352C355.869 106.792 355.125 106 354.581 104.976C354.053 103.952 353.789 102.768 353.789 101.424ZM365.237 101.448C365.237 100.392 365.021 99.464 364.589 98.664C364.157 97.864 363.565 97.248 362.813 96.816C362.077 96.384 361.261 96.168 360.365 96.168C359.437 96.168 358.605 96.376 357.869 96.792C357.133 97.208 356.549 97.816 356.117 98.616C355.701 99.4 355.493 100.336 355.493 101.424C355.493 102.496 355.701 103.44 356.117 104.256C356.549 105.056 357.133 105.672 357.869 106.104C358.605 106.52 359.437 106.728 360.365 106.728C361.261 106.728 362.077 106.512 362.813 106.08C363.565 105.648 364.157 105.032 364.589 104.232C365.021 103.432 365.237 102.504 365.237 101.448ZM376.896 94.656C378.464 94.656 379.744 95.144 380.736 96.12C381.728 97.08 382.224 98.48 382.224 100.32V108H380.568V100.512C380.568 99.088 380.208 98 379.488 97.248C378.784 96.496 377.816 96.12 376.584 96.12C375.32 96.12 374.312 96.52 373.56 97.32C372.808 98.12 372.432 99.296 372.432 100.848V108H370.752V94.896H372.432V97.128C372.848 96.328 373.448 95.72 374.232 95.304C375.016 94.872 375.904 94.656 376.896 94.656ZM391.436 94.704C392.668 94.704 393.74 94.992 394.652 95.568C395.564 96.144 396.22 96.872 396.62 97.752V94.896H398.3V108.336C398.3 109.536 398.036 110.6 397.508 111.528C396.996 112.456 396.276 113.168 395.348 113.664C394.42 114.176 393.364 114.432 392.18 114.432C390.5 114.432 389.1 114.032 387.98 113.232C386.876 112.432 386.188 111.344 385.916 109.968H387.572C387.86 110.88 388.404 111.608 389.204 112.152C390.02 112.696 391.012 112.968 392.18 112.968C393.028 112.968 393.788 112.784 394.46 112.416C395.132 112.064 395.66 111.536 396.044 110.832C396.428 110.128 396.62 109.296 396.62 108.336V105.096C396.204 105.992 395.54 106.736 394.628 107.328C393.732 107.904 392.668 108.192 391.436 108.192C390.236 108.192 389.156 107.912 388.196 107.352C387.252 106.792 386.508 106 385.964 104.976C385.436 103.952 385.172 102.768 385.172 101.424C385.172 100.08 385.436 98.904 385.964 97.896C386.508 96.872 387.252 96.088 388.196 95.544C389.156 94.984 390.236 94.704 391.436 94.704ZM396.62 101.448C396.62 100.392 396.404 99.464 395.972 98.664C395.54 97.864 394.948 97.248 394.196 96.816C393.46 96.384 392.644 96.168 391.748 96.168C390.82 96.168 389.988 96.376 389.252 96.792C388.516 97.208 387.932 97.816 387.5 98.616C387.084 99.4 386.876 100.336 386.876 101.424C386.876 102.496 387.084 103.44 387.5 104.256C387.932 105.056 388.516 105.672 389.252 106.104C389.988 106.52 390.82 106.728 391.748 106.728C392.644 106.728 393.46 106.512 394.196 106.08C394.948 105.648 395.54 105.032 395.972 104.232C396.404 103.432 396.62 102.504 396.62 101.448ZM413.487 94.896V108H411.807V105.696C411.423 106.512 410.831 107.136 410.031 107.568C409.231 108 408.335 108.216 407.343 108.216C405.775 108.216 404.495 107.736 403.503 106.776C402.511 105.8 402.015 104.392 402.015 102.552V94.896H403.671V102.36C403.671 103.784 404.023 104.872 404.727 105.624C405.447 106.376 406.423 106.752 407.655 106.752C408.919 106.752 409.927 106.352 410.679 105.552C411.431 104.752 411.807 103.576 411.807 102.024V94.896H413.487ZM416.554 101.424C416.554 100.08 416.818 98.904 417.346 97.896C417.89 96.872 418.634 96.088 419.578 95.544C420.538 94.984 421.618 94.704 422.818 94.704C424.066 94.704 425.138 94.992 426.034 95.568C426.946 96.144 427.602 96.88 428.002 97.776V94.896H429.682V108H428.002V105.096C427.586 105.992 426.922 106.736 426.01 107.328C425.114 107.904 424.042 108.192 422.794 108.192C421.61 108.192 420.538 107.912 419.578 107.352C418.634 106.792 417.89 106 417.346 104.976C416.818 103.952 416.554 102.768 416.554 101.424ZM428.002 101.448C428.002 100.392 427.786 99.464 427.354 98.664C426.922 97.864 426.33 97.248 425.578 96.816C424.842 96.384 424.026 96.168 423.13 96.168C422.202 96.168 421.37 96.376 420.634 96.792C419.898 97.208 419.314 97.816 418.882 98.616C418.466 99.4 418.258 100.336 418.258 101.424C418.258 102.496 418.466 103.44 418.882 104.256C419.314 105.056 419.898 105.672 420.634 106.104C421.37 106.52 422.202 106.728 423.13 106.728C424.026 106.728 424.842 106.512 425.578 106.08C426.33 105.648 426.922 105.032 427.354 104.232C427.786 103.432 428.002 102.504 428.002 101.448ZM439.014 94.704C440.246 94.704 441.318 94.992 442.23 95.568C443.142 96.144 443.798 96.872 444.198 97.752V94.896H445.878V108.336C445.878 109.536 445.614 110.6 445.086 111.528C444.574 112.456 443.854 113.168 442.926 113.664C441.998 114.176 440.942 114.432 439.758 114.432C438.078 114.432 436.678 114.032 435.558 113.232C434.454 112.432 433.766 111.344 433.494 109.968H435.15C435.438 110.88 435.982 111.608 436.782 112.152C437.598 112.696 438.59 112.968 439.758 112.968C440.606 112.968 441.366 112.784 442.038 112.416C442.71 112.064 443.238 111.536 443.622 110.832C444.006 110.128 444.198 109.296 444.198 108.336V105.096C443.782 105.992 443.118 106.736 442.206 107.328C441.31 107.904 440.246 108.192 439.014 108.192C437.814 108.192 436.734 107.912 435.774 107.352C434.83 106.792 434.086 106 433.542 104.976C433.014 103.952 432.75 102.768 432.75 101.424C432.75 100.08 433.014 98.904 433.542 97.896C434.086 96.872 434.83 96.088 435.774 95.544C436.734 94.984 437.814 94.704 439.014 94.704ZM444.198 101.448C444.198 100.392 443.982 99.464 443.55 98.664C443.118 97.864 442.526 97.248 441.774 96.816C441.038 96.384 440.222 96.168 439.326 96.168C438.398 96.168 437.566 96.376 436.83 96.792C436.094 97.208 435.51 97.816 435.078 98.616C434.662 99.4 434.454 100.336 434.454 101.424C434.454 102.496 434.662 103.44 435.078 104.256C435.51 105.056 436.094 105.672 436.83 106.104C437.566 106.52 438.398 106.728 439.326 106.728C440.222 106.728 441.038 106.512 441.774 106.08C442.526 105.648 443.118 105.032 443.55 104.232C443.982 103.432 444.198 102.504 444.198 101.448ZM461.569 100.776C461.569 101.352 461.553 101.792 461.521 102.096H450.649C450.697 103.088 450.937 103.936 451.369 104.64C451.801 105.344 452.369 105.88 453.073 106.248C453.777 106.6 454.545 106.776 455.377 106.776C456.465 106.776 457.377 106.512 458.113 105.984C458.865 105.456 459.361 104.744 459.601 103.848H461.377C461.057 105.128 460.369 106.176 459.313 106.992C458.273 107.792 456.961 108.192 455.377 108.192C454.145 108.192 453.041 107.92 452.065 107.376C451.089 106.816 450.321 106.032 449.761 105.024C449.217 104 448.945 102.808 448.945 101.448C448.945 100.088 449.217 98.896 449.761 97.872C450.305 96.848 451.065 96.064 452.041 95.52C453.017 94.976 454.129 94.704 455.377 94.704C456.625 94.704 457.713 94.976 458.641 95.52C459.585 96.064 460.305 96.8 460.801 97.728C461.313 98.64 461.569 99.656 461.569 100.776ZM459.865 100.728C459.881 99.752 459.681 98.92 459.265 98.232C458.865 97.544 458.313 97.024 457.609 96.672C456.905 96.32 456.137 96.144 455.305 96.144C454.057 96.144 452.993 96.544 452.113 97.344C451.233 98.144 450.745 99.272 450.649 100.728H459.865Z" fill="#F2F2F2"/>
<path d="M142.42 77.4004C142.078 77.2363 141.907 76.8945 141.907 76.375C141.907 75.8555 142.324 74.748 143.158 73.0527C143.992 71.3438 144.648 70.4893 145.127 70.4893C145.4 70.4893 145.824 70.6807 146.398 71.0635C146.973 71.4326 147.636 71.8838 148.388 72.417C149.153 72.9502 149.98 73.4766 150.869 73.9961C153.029 75.2812 155.128 75.9238 157.165 75.9238C158.177 75.9238 158.901 75.7188 159.339 75.3086C159.776 74.8984 159.995 74.4883 159.995 74.0781C159.995 73.6543 159.763 73.1826 159.298 72.6631C158.833 72.1299 158.225 71.583 157.473 71.0225C156.734 70.4619 155.914 69.874 155.012 69.2588C154.109 68.6299 153.207 67.9668 152.305 67.2695C151.402 66.5723 150.582 65.875 149.844 65.1777C148.162 63.5918 147.321 62.0469 147.321 60.543C147.321 59.4766 147.602 58.5127 148.162 57.6514C148.736 56.79 149.461 56.0928 150.336 55.5596C151.225 55.0264 152.229 54.582 153.351 54.2266C155.36 53.5703 157.432 53.2422 159.564 53.2422C160.152 53.2422 160.59 53.3311 160.877 53.5088C161.164 53.6865 161.308 53.8916 161.308 54.124C161.308 54.3564 161.205 54.7119 161 55.1904C160.795 55.6553 160.692 56.0723 160.692 56.4414C160.692 56.8105 160.938 57.2822 161.431 57.8564C161.937 58.4307 162.586 59.0186 163.379 59.6201C164.172 60.2217 165.047 60.8643 166.004 61.5479C166.961 62.2314 167.918 62.9561 168.875 63.7217C169.832 64.4873 170.707 65.2666 171.5 66.0596C173.291 67.8506 174.187 69.5869 174.187 71.2686C174.187 72.9365 173.749 74.3311 172.874 75.4521C172.013 76.5732 170.81 77.4414 169.265 78.0566C167.72 78.6719 166.024 79.1162 164.179 79.3896C162.333 79.6768 160.084 79.8203 157.432 79.8203C154.779 79.8203 151.854 79.5469 148.654 79C145.469 78.4395 143.391 77.9062 142.42 77.4004ZM176.381 57.3232C174.59 55.1904 172.368 53.6045 169.716 52.5654C167.077 51.5127 164.322 50.9863 161.451 50.9863C156.188 50.9863 151.115 51.9775 146.234 53.96C145.578 54.2197 145.113 54.3496 144.84 54.3496C144.293 54.3496 144.02 54.0898 144.02 53.5703C144.02 53.1465 144.382 52.6406 145.106 52.0527C145.845 51.4648 146.897 50.8633 148.265 50.248C149.646 49.6191 151.204 49.0381 152.94 48.5049C156.905 47.2881 161.157 46.6797 165.696 46.6797C172.409 46.6797 177.475 47.623 180.893 49.5098C181.084 49.6191 181.166 49.9473 181.139 50.4941C181.125 51.0273 180.879 51.8545 180.4 52.9756C179.922 54.0967 179.341 55.1357 178.657 56.0928C177.987 57.0498 177.413 57.5283 176.935 57.5283C176.812 57.3916 176.627 57.3232 176.381 57.3232ZM187.619 53.8369L185.199 54.3291C184.898 54.3291 184.673 54.2881 184.522 54.2061C184.372 54.124 184.297 53.9531 184.297 53.6934C184.297 53.0645 184.933 52.2373 186.204 51.2119C187.476 50.1865 189.212 49.2432 191.413 48.3818C193.628 47.5205 195.617 47.0898 197.381 47.0898C199.158 47.0898 200.423 47.3975 201.175 48.0127C201.94 48.6279 202.323 49.8242 202.323 51.6016L202.262 52.5244C204.982 50.4189 207.423 48.915 209.583 48.0127C211.743 47.1104 213.855 46.6592 215.92 46.6592C217.998 46.6592 219.598 47.0967 220.719 47.9717C221.84 48.833 222.4 50.084 222.4 51.7246C222.4 53.4062 221.607 56.0996 220.021 59.8047C219.365 61.3359 218.709 62.8535 218.053 64.3574C216.467 68.0215 215.674 70.4072 215.674 71.5146C215.674 73.4834 216.651 74.6387 218.606 74.9805C219.659 75.1582 220.268 75.3564 220.432 75.5752C220.596 75.7803 220.678 75.9854 220.678 76.1904C220.678 77.1611 219.618 78.0088 217.499 78.7334C215.394 79.458 213.035 79.8203 210.424 79.8203C205.283 79.8203 202.713 78.2959 202.713 75.2471C202.713 73.1143 203.451 70.3047 204.928 66.8184C205.543 65.3555 206.158 63.9268 206.773 62.5322C208.25 59.1826 208.988 56.8447 208.988 55.5186C208.988 54.1787 207.956 53.5088 205.892 53.5088C204.688 53.5088 203.335 53.9326 201.831 54.7803C201.161 57.4189 199.719 61.3428 197.504 66.5518C195.48 71.2822 194.469 74.6045 194.469 76.5186C194.469 76.5186 194.489 76.9697 194.53 77.8721C194.53 78.2959 194.298 78.6309 193.833 78.877C193.368 79.123 192.883 79.2461 192.377 79.2461L184.153 79.3691C182.636 79.3691 181.713 79.1094 181.385 78.5898C181.234 78.3301 181.159 77.9336 181.159 77.4004C181.159 76.8535 181.275 76.0811 181.508 75.083C181.74 74.0713 182.479 72.0957 183.723 69.1562C184.98 66.2031 186.122 63.4551 187.147 60.9121C188.187 58.3691 188.706 56.6943 188.706 55.8877C188.706 55.0674 188.617 54.5205 188.439 54.2471C188.262 53.9736 187.988 53.8369 187.619 53.8369ZM245.349 56.708C243.079 58.5537 241.35 61.2949 240.16 64.9316C239.531 66.9004 239.217 68.8965 239.217 70.9199C239.217 74.4609 240.372 76.2314 242.683 76.2314C243.858 76.2314 245.075 75.7461 246.333 74.7754C247.591 73.8047 248.719 72.5469 249.717 71.002C250.729 69.4434 251.556 67.5977 252.198 65.4648C252.854 63.332 253.183 61.1992 253.183 59.0664C253.183 56.0586 252.649 53.9189 251.583 52.6475C250.517 51.376 248.726 50.7402 246.21 50.7402C244.815 50.7402 243.312 50.8906 241.698 51.1914C240.085 51.4922 238.718 51.8271 237.597 52.1963C236.489 52.5518 235.491 52.8799 234.603 53.1807C233.714 53.4814 233.201 53.6318 233.064 53.6318C232.559 53.6318 232.306 53.4268 232.306 53.0166C232.306 52.6885 232.641 52.2646 233.311 51.7451C233.994 51.2119 234.938 50.6582 236.141 50.084C237.344 49.4961 238.677 48.9492 240.14 48.4434C243.544 47.2676 246.873 46.6797 250.127 46.6797C256.375 46.6797 260.791 48.498 263.375 52.1348C264.893 54.2812 265.651 56.9336 265.651 60.0918C265.651 62.4844 265.234 64.7334 264.4 66.8389C263.566 68.9307 262.404 70.7627 260.914 72.335C259.424 73.9072 257.674 75.2607 255.664 76.3955C251.604 78.6787 247.003 79.8203 241.862 79.8203C231.8 79.8203 226.769 76.3818 226.769 69.5049C226.769 67.5771 227.186 65.7314 228.02 63.9678C228.854 62.1904 229.947 60.6523 231.301 59.3535C232.668 58.041 234.199 56.8926 235.895 55.9082C239.34 53.9395 242.799 52.9551 246.271 52.9551C246.818 52.9551 247.208 53.0576 247.44 53.2627C247.687 53.4541 247.81 53.6523 247.81 53.8574C247.81 54.0625 247.775 54.2402 247.707 54.3906C247.652 54.5273 247.536 54.6914 247.358 54.8828C247.181 55.0742 247.023 55.2383 246.887 55.375C246.545 55.6758 246.032 56.1201 245.349 56.708ZM319.156 47.9307L327.421 47.7051C327.886 47.7051 328.118 47.8418 328.118 48.1152C328.118 48.7852 327.92 49.7969 327.523 51.1504C326.389 55.1152 324.557 58.957 322.027 62.6758C318.732 67.5156 314.679 71.6582 309.866 75.1035C307.665 76.6895 305.512 77.9062 303.406 78.7539C301.314 79.6016 299.428 80.0254 297.746 80.0254C295.217 80.0254 293.446 78.1113 292.435 74.2832C290.151 76.0742 287.916 77.4824 285.729 78.5078C283.541 79.5195 281.6 80.0254 279.904 80.0254C278.223 80.0254 276.623 79.3008 275.105 77.8516C273.588 76.4023 272.371 74.5088 271.455 72.1709C270.553 69.8193 270.102 67.3857 270.102 64.8701C270.102 62.792 270.566 60.5566 271.496 58.1641C271.811 57.3301 272.111 56.585 272.398 55.9287C272.686 55.2588 272.829 54.8076 272.829 54.5752C272.829 54.3291 272.747 54.1172 272.583 53.9395C272.419 53.7617 272.152 53.6113 271.783 53.4883C271.291 53.3105 270.71 53.1738 270.04 53.0781C268.892 52.8867 268.317 52.4766 268.317 51.8477C268.317 51.2871 268.987 50.6719 270.327 50.002C271.681 49.332 273.533 48.751 275.885 48.2588C278.25 47.7529 280.492 47.5 282.611 47.5C284.73 47.5 286.275 47.6367 287.246 47.9102C288.23 48.1699 288.723 48.6621 288.723 49.3867C288.723 49.7012 288.613 50.0498 288.395 50.4326C285.852 54.6572 284.129 58.1436 283.227 60.8916C282.324 63.6396 281.873 66.6338 281.873 69.874C281.873 70.9404 282.023 72.0068 282.324 73.0732C282.625 74.1396 283.008 74.6729 283.473 74.6729C284.088 74.6729 284.888 74.2148 285.872 73.2988C286.856 72.3828 287.916 71.1045 289.051 69.4639C290.199 67.8232 291.32 65.9844 292.414 63.9473C294.889 59.3535 296.659 54.6094 297.726 49.7148C297.876 48.9082 298.361 48.4502 299.182 48.3408L307.856 48.1152C308.321 48.1152 308.554 48.2725 308.554 48.5869C307.938 51.54 306.646 54.958 304.678 58.8408C303.912 60.3721 303.16 61.8691 302.422 63.332C300.768 66.6543 299.94 69.1631 299.94 70.8584C299.94 72.7178 300.159 73.8799 300.597 74.3447C300.802 74.5635 301.144 74.6729 301.622 74.6729C302.101 74.6729 302.832 74.3105 303.816 73.5859C304.814 72.8477 305.929 71.7402 307.159 70.2637C308.39 68.7734 309.62 67.0371 310.851 65.0547C313.681 60.5156 315.964 55.2656 317.7 49.3047C317.974 48.3887 318.459 47.9307 319.156 47.9307ZM351.866 79.8203C347.86 79.8203 344.183 79.1094 340.833 77.6875C340.136 78.3848 339.268 78.8428 338.229 79.0615C337.203 79.2939 335.829 79.4102 334.106 79.4102C332.397 79.4102 330.736 79.2119 329.123 78.8154C327.51 78.4189 326.231 77.9336 325.288 77.3594C324.331 76.7852 323.853 76.2246 323.853 75.6777C323.853 75.3633 323.989 75.1104 324.263 74.9189C324.536 74.7275 324.851 74.6318 325.206 74.6318C326.464 74.6318 327.394 74.4336 327.995 74.0371C328.61 73.627 329.198 72.875 329.759 71.7812C330.333 70.6875 330.887 69.4297 331.42 68.0078C331.953 66.5723 332.445 65.2324 332.896 63.9883C333.361 62.7441 333.881 61.4863 334.455 60.2148C335.727 57.4395 337.319 55.5938 339.233 54.6777C340.149 54.2402 341.346 53.9053 342.822 53.6729C344.299 53.4268 345.454 53.3037 346.288 53.3037C347.136 53.3037 347.683 53.3174 347.929 53.3447C348.188 53.3584 348.448 53.3994 348.708 53.4678C349.228 53.6045 349.487 53.8916 349.487 54.3291C349.487 54.6299 349.426 54.9102 349.303 55.1699C349.193 55.416 348.886 55.9492 348.38 56.7695C347.874 57.5898 347.204 59.3057 346.37 61.917C349.706 61.7119 352.256 61.0215 354.02 59.8457C355.783 58.6562 356.665 57.1387 356.665 55.293C356.665 52.791 354.546 51.3691 350.308 51.0273C349.446 50.959 348.188 50.9248 346.534 50.9248C344.88 50.9248 343.041 51.123 341.018 51.5195C338.994 51.9023 337.408 52.3262 336.26 52.791C335.125 53.2559 334.1 53.6865 333.184 54.083C332.268 54.4658 331.68 54.6572 331.42 54.6572C330.709 54.6572 330.354 54.4248 330.354 53.96C330.354 53.4814 330.798 52.9141 331.687 52.2578C332.575 51.6016 333.799 50.9521 335.357 50.3096C336.93 49.667 338.666 49.0723 340.566 48.5254C344.859 47.2949 349.296 46.6797 353.876 46.6797C358.456 46.6797 361.929 47.3975 364.294 48.833C366.673 50.2549 367.862 52.1416 367.862 54.4932C367.862 56.8447 366.68 58.7998 364.314 60.3584C361.963 61.917 358.729 62.7783 354.614 62.9424C357.253 62.9697 359.68 63.6055 361.895 64.8496C362.961 65.4375 363.829 66.21 364.499 67.167C365.169 68.124 365.504 69.2314 365.504 70.4893C365.504 71.7471 365.237 72.9297 364.704 74.0371C364.185 75.1309 363.487 76.0332 362.612 76.7441C361.751 77.4551 360.719 78.043 359.516 78.5078C357.314 79.3828 354.765 79.8203 351.866 79.8203ZM345.796 63.7217C345.536 64.583 345.023 66.3262 344.258 68.9512C343.492 71.5625 342.959 73.3125 342.658 74.2012C342.357 75.0762 342.2 75.5273 342.187 75.5547C342.624 75.6094 343.321 75.6367 344.278 75.6367C345.249 75.6367 346.329 75.5068 347.519 75.2471C348.722 74.9736 349.795 74.5635 350.738 74.0166C351.695 73.4697 352.44 72.7314 352.974 71.8018C353.521 70.8721 353.794 69.7441 353.794 68.418C353.794 67.0918 353.021 65.9912 351.477 65.1162C349.932 64.2412 348.038 63.7764 345.796 63.7217ZM388.78 56.708C386.511 58.5537 384.781 61.2949 383.592 64.9316C382.963 66.9004 382.648 68.8965 382.648 70.9199C382.648 74.4609 383.804 76.2314 386.114 76.2314C387.29 76.2314 388.507 75.7461 389.765 74.7754C391.022 73.8047 392.15 72.5469 393.148 71.002C394.16 69.4434 394.987 67.5977 395.63 65.4648C396.286 63.332 396.614 61.1992 396.614 59.0664C396.614 56.0586 396.081 53.9189 395.015 52.6475C393.948 51.376 392.157 50.7402 389.642 50.7402C388.247 50.7402 386.743 50.8906 385.13 51.1914C383.517 51.4922 382.149 51.8271 381.028 52.1963C379.921 52.5518 378.923 52.8799 378.034 53.1807C377.146 53.4814 376.633 53.6318 376.496 53.6318C375.99 53.6318 375.737 53.4268 375.737 53.0166C375.737 52.6885 376.072 52.2646 376.742 51.7451C377.426 51.2119 378.369 50.6582 379.572 50.084C380.775 49.4961 382.108 48.9492 383.571 48.4434C386.976 47.2676 390.305 46.6797 393.559 46.6797C399.807 46.6797 404.223 48.498 406.807 52.1348C408.324 54.2812 409.083 56.9336 409.083 60.0918C409.083 62.4844 408.666 64.7334 407.832 66.8389C406.998 68.9307 405.836 70.7627 404.346 72.335C402.855 73.9072 401.105 75.2607 399.096 76.3955C395.035 78.6787 390.435 79.8203 385.294 79.8203C375.231 79.8203 370.2 76.3818 370.2 69.5049C370.2 67.5771 370.617 65.7314 371.451 63.9678C372.285 62.1904 373.379 60.6523 374.732 59.3535C376.1 58.041 377.631 56.8926 379.326 55.9082C382.771 53.9395 386.23 52.9551 389.703 52.9551C390.25 52.9551 390.64 53.0576 390.872 53.2627C391.118 53.4541 391.241 53.6523 391.241 53.8574C391.241 54.0625 391.207 54.2402 391.139 54.3906C391.084 54.5273 390.968 54.6914 390.79 54.8828C390.612 55.0742 390.455 55.2383 390.318 55.375C389.977 55.6758 389.464 56.1201 388.78 56.708ZM419.891 79.1641L411.708 79.3691C410.354 79.3691 409.678 78.9043 409.678 77.9746C409.678 77.5508 409.855 77.1816 410.211 76.8672C410.58 76.5527 411.059 76.1973 411.646 75.8008C412.234 75.3906 412.768 74.8574 413.246 74.2012C413.725 73.5312 414.251 72.4102 414.825 70.8379C415.413 69.252 415.892 67.707 416.261 66.2031C417.437 61.4316 418.277 58.3281 418.783 56.8926C419.303 55.4434 419.692 54.3906 419.952 53.7344C420.226 53.0645 420.52 52.4492 420.834 51.8887C421.162 51.3281 421.477 50.8359 421.777 50.4121C422.078 49.9883 422.434 49.6123 422.844 49.2842C423.254 48.9424 423.644 48.6621 424.013 48.4434C424.396 48.2109 424.86 48.0127 425.407 47.8486C425.954 47.6709 426.48 47.5342 426.986 47.4385C427.492 47.3428 428.121 47.2676 428.873 47.2129C430.008 47.1309 431.519 47.0898 433.405 47.0898C435.292 47.0898 436.693 47.1787 437.609 47.3564C438.525 47.5342 438.983 47.9102 438.983 48.4844C438.983 48.9492 438.457 49.5029 437.404 50.1455C436.229 50.8701 435.189 52.0459 434.287 53.6729C433.316 55.4502 432.558 57.1182 432.011 58.6768C431.464 60.2217 431.033 61.4658 430.719 62.4092C430.404 63.3525 430.021 64.5146 429.57 65.8955C429.119 67.2764 428.736 68.4248 428.422 69.3408C427.137 73.0186 425.38 75.3428 423.151 76.3135C426.597 76.1357 429.447 75.5273 431.703 74.4883C432.934 73.9277 433.986 73.4014 434.861 72.9092C435.75 72.417 436.741 71.6855 437.835 70.7148C439.271 69.4297 440.549 68.2061 441.67 67.0439C442.791 65.8682 443.399 65.2324 443.495 65.1367C443.851 64.7676 444.281 64.583 444.787 64.583C445.293 64.583 445.703 64.7061 446.018 64.9521C446.332 65.1982 446.489 65.5195 446.489 65.916C446.489 67.4883 445.983 69.9014 444.972 73.1553C444.616 74.2764 444.261 75.1924 443.905 75.9033C443.55 76.6143 443.092 77.25 442.531 77.8105C441.465 78.877 439.749 79.4102 437.384 79.4102L419.891 79.1641Z" fill="#F2F2F2"/>
<circle cx="66.0748" cy="64.9252" r="63.6257" fill="#303238"/>
<path d="M21.4441 85.0763C17.2375 77.7902 15.1342 74.1472 14.3109 70.2741C13.5825 66.8472 13.5825 63.3054 14.3109 59.8785C15.1342 56.0054 17.2375 52.3624 21.4441 45.0763L26.4203 36.4573C30.6269 29.1712 32.7302 25.5282 35.6728 22.8787C38.2764 20.5344 41.3436 18.7635 44.6756 17.6809C48.4414 16.4573 52.648 16.4573 61.0613 16.4573H71.0136C79.4269 16.4573 83.6335 16.4573 87.3993 17.6809C90.7313 18.7635 93.7985 20.5344 96.4021 22.8787C99.3447 25.5282 101.448 29.1712 105.655 36.4573L110.631 45.0763C114.837 52.3624 116.941 56.0054 117.764 59.8785C118.492 63.3054 118.492 66.8472 117.764 70.2741C116.941 74.1472 114.837 77.7902 110.631 85.0763L105.655 93.6953C101.448 100.981 99.3447 104.624 96.4021 107.274C93.7985 109.618 90.7313 111.389 87.3993 112.472C83.6335 113.695 79.4269 113.695 71.0136 113.695H61.0613C52.648 113.695 48.4414 113.695 44.6756 112.472C41.3436 111.389 38.2764 109.618 35.6728 107.274C32.7302 104.624 30.6269 100.981 26.4203 93.6952L21.4441 85.0763Z" fill="#F2F2F2"/>
<path d="M35.1606 82.9628C28.7916 71.9314 28.7916 58.3402 35.1606 47.3089C41.5295 36.2775 53.2998 29.4819 66.0378 29.4819C78.7757 29.4819 90.546 36.2775 96.9149 47.3089C103.284 58.3402 103.284 71.9314 96.9149 82.9628C90.546 93.9941 78.7757 100.79 66.0378 100.79C53.2998 100.79 41.5295 93.9941 35.1606 82.9628Z" fill="#303238"/>
<path d="M40.9517 83.9053C40.5041 83.6904 40.2803 83.2428 40.2803 82.5625C40.2803 81.8822 40.8263 80.432 41.9185 78.2119C43.0106 75.974 43.87 74.855 44.4966 74.855C44.8547 74.855 45.4097 75.1056 46.1616 75.6069C46.9136 76.0903 47.7819 76.6812 48.7666 77.3794C49.7692 78.0776 50.8524 78.7669 52.0161 79.4473C54.8449 81.1302 57.5931 81.9717 60.2607 81.9717C61.5856 81.9717 62.5345 81.7031 63.1074 81.166C63.6803 80.6289 63.9668 80.0918 63.9668 79.5547C63.9668 78.9997 63.6624 78.382 63.0537 77.7017C62.445 77.0034 61.6483 76.2873 60.6636 75.5532C59.6968 74.8192 58.6226 74.0493 57.4409 73.2437C56.2593 72.4201 55.0776 71.5518 53.896 70.6387C52.7144 69.7256 51.6401 68.8125 50.6733 67.8994C48.4712 65.8226 47.3701 63.7995 47.3701 61.8301C47.3701 60.4336 47.7371 59.1714 48.4712 58.0435C49.2231 56.9155 50.172 56.0024 51.3179 55.3042C52.4816 54.606 53.7975 54.0241 55.2656 53.5586C57.8975 52.6992 60.6099 52.2695 63.4028 52.2695C64.1727 52.2695 64.7456 52.3859 65.1216 52.6187C65.4976 52.8514 65.6855 53.12 65.6855 53.4243C65.6855 53.7287 65.5513 54.1942 65.2827 54.8208C65.0142 55.4295 64.8799 55.9756 64.8799 56.459C64.8799 56.9424 65.2021 57.5601 65.8467 58.312C66.5091 59.064 67.3595 59.8338 68.3979 60.6216C69.4364 61.4093 70.5822 62.2508 71.8354 63.146C73.0887 64.0412 74.342 64.9901 75.5952 65.9927C76.8485 66.9953 77.9943 68.0158 79.0327 69.0542C81.3781 71.3996 82.5508 73.6733 82.5508 75.8755C82.5508 78.0597 81.9779 79.8859 80.832 81.354C79.7041 82.8221 78.1286 83.959 76.1055 84.7646C74.0824 85.5703 71.8623 86.1522 69.4453 86.5103C67.0283 86.8862 64.0832 87.0742 60.6099 87.0742C57.1366 87.0742 53.3052 86.7161 49.1157 86C44.9442 85.266 42.2228 84.5677 40.9517 83.9053ZM85.4243 57.6138C83.0789 54.8208 80.1696 52.744 76.6963 51.3833C73.2409 50.0047 69.6333 49.3154 65.8735 49.3154C58.9806 49.3154 52.3384 50.6134 45.9468 53.2095C45.0874 53.5496 44.4787 53.7197 44.1206 53.7197C43.4045 53.7197 43.0464 53.3796 43.0464 52.6992C43.0464 52.1442 43.5208 51.4818 44.4697 50.7119C45.4365 49.9421 46.8151 49.1543 48.6055 48.3486C50.4137 47.5251 52.4548 46.7642 54.7285 46.0659C59.9206 44.4725 65.4886 43.6758 71.4326 43.6758C80.2233 43.6758 86.8566 44.9111 91.3325 47.3818C91.5832 47.5251 91.6906 47.9548 91.6548 48.6709C91.6369 49.3691 91.3146 50.4523 90.688 51.9204C90.0614 53.3885 89.3005 54.7492 88.4053 56.0024C87.528 57.2557 86.776 57.8823 86.1494 57.8823C85.9883 57.7033 85.7466 57.6138 85.4243 57.6138Z" fill="#F2F2F2"/>
</g>
<defs>
<clipPath id="clip0">
<rect width="475" height="130" fill="white"/>
</clipPath>
</defs>
</svg>
