<svg width="320" height="320" viewBox="0 0 320 320" fill="none" xmlns="http://www.w3.org/2000/svg">
<path d="M175.061 76.8C190.261 76.8 203.394 79.6 214.461 85.2C225.528 90.8 233.928 98.6667 239.661 108.8C245.528 118.8 248.461 130.467 248.461 143.8C248.461 154.467 246.594 164.667 242.861 174.4C239.261 184.133 233.994 192.067 227.061 198.2C220.261 204.333 212.194 207.4 202.861 207.4C196.061 207.4 190.728 205.933 186.861 203C182.994 199.933 180.594 195.667 179.661 190.2C175.528 195.533 170.328 199.733 164.061 202.8C157.794 205.867 151.261 207.4 144.461 207.4C134.194 207.4 126.128 204.333 120.261 198.2C114.528 191.933 111.661 183.467 111.661 172.8C111.661 162.667 113.728 153.2 117.861 144.4C122.128 135.6 128.061 128.6 135.661 123.4C143.261 118.067 151.794 115.4 161.261 115.4C172.861 115.4 180.994 119.333 185.661 127.2L187.461 117.2H207.261L197.261 174.4C196.861 177.2 196.661 179.667 196.661 181.8C196.661 185.267 197.328 187.867 198.661 189.6C200.128 191.333 202.661 192.2 206.261 192.2C211.328 192.2 215.661 189.733 219.261 184.8C222.861 179.733 225.528 173.533 227.261 166.2C229.128 158.867 230.061 151.733 230.061 144.8C230.061 127.867 225.128 114.933 215.261 106C205.394 97.0667 191.061 92.6 172.261 92.6C156.528 92.6 142.394 96.3333 129.861 103.8C117.461 111.267 107.728 121.533 100.661 134.6C93.5943 147.667 90.0609 162.2 90.0609 178.2C90.0609 195.267 95.1276 208.267 105.261 217.2C115.394 226.133 129.861 230.6 148.661 230.6C161.328 230.6 172.394 228.267 181.861 223.6L184.861 238.8C172.728 244 159.128 246.6 144.061 246.6C129.528 246.6 116.794 243.867 105.861 238.4C94.9276 232.933 86.4609 225.133 80.4609 215C74.4609 205 71.4609 193.333 71.4609 180C71.4609 160.933 75.8609 143.533 84.6609 127.8C93.5943 112.067 105.928 99.6667 121.661 90.6C137.394 81.4 155.194 76.8 175.061 76.8ZM151.461 189.8C157.061 189.8 162.128 188.2 166.661 185C171.328 181.667 174.994 177.333 177.661 172C180.328 166.533 181.661 160.733 181.661 154.6C181.661 148.2 179.861 143 176.261 139C172.794 134.867 167.861 132.8 161.461 132.8C155.728 132.8 150.661 134.6 146.261 138.2C141.994 141.667 138.661 146.2 136.261 151.8C133.994 157.4 132.861 163.267 132.861 169.4C132.861 175.667 134.394 180.667 137.461 184.4C140.528 188 145.194 189.8 151.461 189.8Z" fill="url(#paint0_linear)"/>
<defs>
<linearGradient id="paint0_linear" x1="57" y1="24" x2="272.13" y2="33.1863" gradientUnits="userSpaceOnUse">
<stop stop-color="#AEE9E0"/>
<stop offset="1" stop-color="#A2F2BC"/>
</linearGradient>
</defs>
</svg>
