<svg width="320" height="320" viewBox="0 0 320 320" fill="none" xmlns="http://www.w3.org/2000/svg">
<path d="M158.591 89C172.191 89 183.058 92.7333 191.191 100.2C199.458 107.667 203.591 117.867 203.591 130.8C203.591 144.267 199.325 154.4 190.791 161.2C182.258 168 170.925 171.4 156.791 171.4L155.991 187.2H136.191L135.191 155.8H141.791C154.725 155.8 164.591 154.067 171.391 150.6C178.325 147.133 181.791 140.533 181.791 130.8C181.791 123.733 179.725 118.2 175.591 114.2C171.591 110.2 165.991 108.2 158.791 108.2C151.591 108.2 145.925 110.133 141.791 114C137.658 117.867 135.591 123.267 135.591 130.2H114.191C114.191 122.2 115.991 115.067 119.591 108.8C123.191 102.533 128.325 97.6667 134.991 94.2C141.791 90.7333 149.658 89 158.591 89ZM145.791 231.4C141.658 231.4 138.191 230 135.391 227.2C132.591 224.4 131.191 220.933 131.191 216.8C131.191 212.667 132.591 209.2 135.391 206.4C138.191 203.6 141.658 202.2 145.791 202.2C149.791 202.2 153.191 203.6 155.991 206.4C158.791 209.2 160.191 212.667 160.191 216.8C160.191 220.933 158.791 224.4 155.991 227.2C153.191 230 149.791 231.4 145.791 231.4Z" fill="url(#paint0_linear)"/>
<defs>
<linearGradient id="paint0_linear" x1="106" y1="10" x2="218.961" y2="11.8798" gradientUnits="userSpaceOnUse">
<stop stop-color="#AEE9E0"/>
<stop offset="1" stop-color="#A2F2BC"/>
</linearGradient>
</defs>
</svg>
