<svg width="548" height="130" viewBox="0 0 548 130" fill="none" xmlns="http://www.w3.org/2000/svg">
<path d="M256.374 108.053H246.418L244.708 112.911H240.637L249.155 89.1H253.671L262.189 112.911H258.084L256.374 108.053ZM255.279 104.871L251.413 93.8211L247.513 104.871H255.279ZM269.793 96.7974C270.363 95.8395 271.116 95.0982 272.051 94.5737C273.009 94.0263 274.138 93.7526 275.438 93.7526V97.7895H274.446C272.918 97.7895 271.755 98.1772 270.956 98.9526C270.181 99.7281 269.793 101.074 269.793 102.989V112.911H265.893V94.0605H269.793V96.7974ZM283.573 97.2421V107.676C283.573 108.383 283.733 108.896 284.052 109.216C284.394 109.512 284.965 109.661 285.763 109.661H288.158V112.911H285.079C283.322 112.911 281.977 112.5 281.042 111.679C280.107 110.858 279.639 109.524 279.639 107.676V97.2421H277.415V94.0605H279.639V89.3737H283.573V94.0605H288.158V97.2421H283.573ZM298.594 113.218C297.112 113.218 295.777 112.956 294.591 112.432C293.428 111.884 292.505 111.154 291.82 110.242C291.136 109.307 290.771 108.269 290.726 107.129H294.762C294.831 107.927 295.207 108.6 295.891 109.147C296.598 109.672 297.476 109.934 298.526 109.934C299.62 109.934 300.464 109.729 301.057 109.318C301.673 108.885 301.981 108.338 301.981 107.676C301.981 106.969 301.639 106.445 300.955 106.103C300.293 105.761 299.233 105.384 297.773 104.974C296.359 104.586 295.207 104.21 294.318 103.845C293.428 103.48 292.653 102.921 291.991 102.168C291.353 101.416 291.033 100.424 291.033 99.1921C291.033 98.1886 291.33 97.2763 291.923 96.4553C292.516 95.6114 293.36 94.95 294.455 94.4711C295.572 93.9921 296.849 93.7526 298.286 93.7526C300.43 93.7526 302.152 94.3 303.452 95.3947C304.775 96.4667 305.482 97.9377 305.573 99.8079H301.673C301.605 98.964 301.262 98.2912 300.647 97.7895C300.031 97.2877 299.198 97.0368 298.149 97.0368C297.123 97.0368 296.336 97.2307 295.789 97.6184C295.241 98.0061 294.968 98.5193 294.968 99.1579C294.968 99.6597 295.15 100.082 295.515 100.424C295.88 100.766 296.325 101.039 296.849 101.245C297.374 101.427 298.149 101.667 299.176 101.963C300.544 102.328 301.662 102.704 302.528 103.092C303.418 103.457 304.182 104.004 304.82 104.734C305.459 105.464 305.79 106.433 305.812 107.642C305.812 108.714 305.516 109.672 304.923 110.516C304.33 111.36 303.486 112.021 302.391 112.5C301.319 112.979 300.054 113.218 298.594 113.218ZM317.613 103.4C317.613 101.507 318 99.8307 318.776 98.3711C319.574 96.9114 320.646 95.7825 321.992 94.9842C323.36 94.1632 324.865 93.7526 326.508 93.7526C327.99 93.7526 329.279 94.0491 330.373 94.6421C331.491 95.2123 332.38 95.9307 333.042 96.7974V94.0605H336.976V112.911H333.042V110.105C332.38 110.995 331.479 111.736 330.339 112.329C329.199 112.922 327.899 113.218 326.439 113.218C324.82 113.218 323.337 112.808 321.992 111.987C320.646 111.143 319.574 109.98 318.776 108.497C318 106.992 317.613 105.293 317.613 103.4ZM333.042 103.468C333.042 102.168 332.768 101.039 332.221 100.082C331.696 99.1237 331.001 98.3939 330.134 97.8921C329.267 97.3904 328.332 97.1395 327.329 97.1395C326.325 97.1395 325.39 97.3904 324.523 97.8921C323.657 98.3711 322.95 99.0895 322.402 100.047C321.878 100.982 321.615 102.1 321.615 103.4C321.615 104.7 321.878 105.84 322.402 106.821C322.95 107.802 323.657 108.554 324.523 109.079C325.413 109.581 326.348 109.832 327.329 109.832C328.332 109.832 329.267 109.581 330.134 109.079C331.001 108.577 331.696 107.847 332.221 106.889C332.768 105.909 333.042 104.768 333.042 103.468ZM351.609 93.7526C353.091 93.7526 354.414 94.0605 355.577 94.6763C356.763 95.2921 357.687 96.2044 358.348 97.4132C359.01 98.6219 359.341 100.082 359.341 101.792V112.911H355.475V102.374C355.475 100.686 355.053 99.3974 354.209 98.5079C353.365 97.5956 352.213 97.1395 350.754 97.1395C349.294 97.1395 348.131 97.5956 347.264 98.5079C346.42 99.3974 345.998 100.686 345.998 102.374V112.911H342.098V94.0605H345.998V96.2158C346.637 95.4404 347.447 94.836 348.427 94.4026C349.431 93.9693 350.491 93.7526 351.609 93.7526ZM363.015 103.4C363.015 101.507 363.402 99.8307 364.178 98.3711C364.976 96.9114 366.048 95.7825 367.394 94.9842C368.762 94.1632 370.279 93.7526 371.944 93.7526C373.175 93.7526 374.384 94.0263 375.57 94.5737C376.779 95.0982 377.737 95.8053 378.444 96.6947V87.5947H382.378V112.911H378.444V110.071C377.805 110.983 376.916 111.736 375.775 112.329C374.658 112.922 373.369 113.218 371.909 113.218C370.267 113.218 368.762 112.808 367.394 111.987C366.048 111.143 364.976 109.98 364.178 108.497C363.402 106.992 363.015 105.293 363.015 103.4ZM378.444 103.468C378.444 102.168 378.17 101.039 377.623 100.082C377.098 99.1237 376.402 98.3939 375.536 97.8921C374.669 97.3904 373.734 97.1395 372.73 97.1395C371.727 97.1395 370.792 97.3904 369.925 97.8921C369.059 98.3711 368.352 99.0895 367.804 100.047C367.28 100.982 367.017 102.1 367.017 103.4C367.017 104.7 367.28 105.84 367.804 106.821C368.352 107.802 369.059 108.554 369.925 109.079C370.815 109.581 371.75 109.832 372.73 109.832C373.734 109.832 374.669 109.581 375.536 109.079C376.402 108.577 377.098 107.847 377.623 106.889C378.17 105.909 378.444 104.768 378.444 103.468ZM404.222 113.15C402.626 113.15 401.189 112.876 399.912 112.329C398.635 111.759 397.631 110.961 396.901 109.934C396.172 108.908 395.807 107.711 395.807 106.342H399.98C400.072 107.368 400.471 108.212 401.178 108.874C401.908 109.535 402.922 109.866 404.222 109.866C405.568 109.866 406.617 109.546 407.37 108.908C408.122 108.246 408.499 107.403 408.499 106.376C408.499 105.578 408.259 104.928 407.78 104.426C407.324 103.925 406.743 103.537 406.036 103.263C405.351 102.989 404.393 102.693 403.162 102.374C401.611 101.963 400.345 101.553 399.365 101.142C398.407 100.709 397.586 100.047 396.901 99.1579C396.217 98.2684 395.875 97.0825 395.875 95.6C395.875 94.2316 396.217 93.0342 396.901 92.0079C397.586 90.9816 398.543 90.1947 399.775 89.6474C401.007 89.1 402.432 88.8263 404.051 88.8263C406.355 88.8263 408.236 89.4079 409.696 90.5711C411.179 91.7114 412 93.2851 412.159 95.2921H407.849C407.78 94.4254 407.37 93.6842 406.617 93.0684C405.865 92.4526 404.872 92.1447 403.641 92.1447C402.523 92.1447 401.611 92.4298 400.904 93C400.197 93.5702 399.843 94.3912 399.843 95.4632C399.843 96.193 400.06 96.7974 400.493 97.2763C400.95 97.7325 401.52 98.0974 402.204 98.3711C402.888 98.6447 403.823 98.9412 405.009 99.2605C406.583 99.6939 407.86 100.127 408.841 100.561C409.844 100.994 410.688 101.667 411.372 102.579C412.079 103.468 412.433 104.666 412.433 106.171C412.433 107.38 412.102 108.52 411.441 109.592C410.802 110.664 409.856 111.531 408.601 112.192C407.37 112.831 405.91 113.15 404.222 113.15ZM425.212 113.218C423.433 113.218 421.825 112.819 420.388 112.021C418.951 111.2 417.822 110.06 417.001 108.6C416.18 107.118 415.77 105.407 415.77 103.468C415.77 101.553 416.192 99.8535 417.035 98.3711C417.879 96.8886 419.031 95.7483 420.491 94.95C421.95 94.1518 423.581 93.7526 425.383 93.7526C427.185 93.7526 428.815 94.1518 430.275 94.95C431.735 95.7483 432.886 96.8886 433.73 98.3711C434.574 99.8535 434.996 101.553 434.996 103.468C434.996 105.384 434.563 107.083 433.696 108.566C432.829 110.048 431.643 111.2 430.138 112.021C428.656 112.819 427.013 113.218 425.212 113.218ZM425.212 109.832C426.215 109.832 427.15 109.592 428.017 109.113C428.906 108.634 429.625 107.916 430.172 106.958C430.72 106 430.993 104.837 430.993 103.468C430.993 102.1 430.731 100.948 430.206 100.013C429.682 99.0553 428.986 98.3369 428.12 97.8579C427.253 97.379 426.318 97.1395 425.314 97.1395C424.311 97.1395 423.376 97.379 422.509 97.8579C421.665 98.3369 420.992 99.0553 420.491 100.013C419.989 100.948 419.738 102.1 419.738 103.468C419.738 105.498 420.251 107.072 421.278 108.189C422.327 109.284 423.638 109.832 425.212 109.832ZM446.753 97.2421H443.263V112.911H439.329V97.2421H437.106V94.0605H439.329V92.7263C439.329 90.5597 439.899 88.986 441.04 88.0053C442.203 87.0018 444.016 86.5 446.479 86.5V89.75C445.293 89.75 444.461 89.9781 443.982 90.4342C443.503 90.8675 443.263 91.6316 443.263 92.7263V94.0605H446.753V97.2421ZM454.758 97.2421V107.676C454.758 108.383 454.918 108.896 455.237 109.216C455.579 109.512 456.149 109.661 456.948 109.661H459.342V112.911H456.263C454.507 112.911 453.162 112.5 452.227 111.679C451.292 110.858 450.824 109.524 450.824 107.676V97.2421H448.6V94.0605H450.824V89.3737H454.758V94.0605H459.342V97.2421H454.758ZM488.253 94.0605L482.403 112.911H478.297L474.5 98.9868L470.703 112.911H466.597L460.713 94.0605H464.682L468.616 109.216L472.618 94.0605H476.689L480.521 109.147L484.421 94.0605H488.253ZM489.867 103.4C489.867 101.507 490.255 99.8307 491.03 98.3711C491.829 96.9114 492.901 95.7825 494.246 94.9842C495.615 94.1632 497.12 93.7526 498.762 93.7526C500.245 93.7526 501.533 94.0491 502.628 94.6421C503.745 95.2123 504.635 95.9307 505.296 96.7974V94.0605H509.23V112.911H505.296V110.105C504.635 110.995 503.734 111.736 502.594 112.329C501.453 112.922 500.153 113.218 498.694 113.218C497.074 113.218 495.592 112.808 494.246 111.987C492.901 111.143 491.829 109.98 491.03 108.497C490.255 106.992 489.867 105.293 489.867 103.4ZM505.296 103.468C505.296 102.168 505.023 101.039 504.475 100.082C503.951 99.1237 503.255 98.3939 502.388 97.8921C501.522 97.3904 500.587 97.1395 499.583 97.1395C498.58 97.1395 497.644 97.3904 496.778 97.8921C495.911 98.3711 495.204 99.0895 494.657 100.047C494.132 100.982 493.87 102.1 493.87 103.4C493.87 104.7 494.132 105.84 494.657 106.821C495.204 107.802 495.911 108.554 496.778 109.079C497.667 109.581 498.602 109.832 499.583 109.832C500.587 109.832 501.522 109.581 502.388 109.079C503.255 108.577 503.951 107.847 504.475 106.889C505.023 105.909 505.296 104.768 505.296 103.468ZM518.253 96.7974C518.823 95.8395 519.576 95.0982 520.511 94.5737C521.469 94.0263 522.598 93.7526 523.898 93.7526V97.7895H522.906C521.377 97.7895 520.214 98.1772 519.416 98.9526C518.641 99.7281 518.253 101.074 518.253 102.989V112.911H514.353V94.0605H518.253V96.7974ZM544.759 103.024C544.759 103.731 544.714 104.369 544.622 104.939H530.22C530.334 106.445 530.893 107.654 531.896 108.566C532.9 109.478 534.131 109.934 535.591 109.934C537.689 109.934 539.172 109.056 540.038 107.3H544.246C543.676 109.033 542.638 110.459 541.133 111.576C539.651 112.671 537.803 113.218 535.591 113.218C533.789 113.218 532.17 112.819 530.733 112.021C529.319 111.2 528.201 110.06 527.38 108.6C526.582 107.118 526.183 105.407 526.183 103.468C526.183 101.53 526.571 99.8307 527.346 98.3711C528.144 96.8886 529.25 95.7483 530.664 94.95C532.101 94.1518 533.743 93.7526 535.591 93.7526C537.37 93.7526 538.955 94.1404 540.346 94.9158C541.737 95.6912 542.821 96.786 543.596 98.2C544.372 99.5912 544.759 101.199 544.759 103.024ZM540.688 101.792C540.665 100.355 540.152 99.2035 539.149 98.3368C538.145 97.4702 536.902 97.0368 535.42 97.0368C534.074 97.0368 532.922 97.4702 531.965 98.3368C531.007 99.1807 530.436 100.332 530.254 101.792H540.688Z" fill="#F2F2F2"/>
<path d="M158.087 58.6084C157.332 59.8206 156.095 63.1667 154.376 68.6465C154.784 68.6712 155.39 68.6836 156.194 68.6836C158.668 68.6836 160.753 67.8363 162.447 66.1416C164.154 64.4469 165.008 62.2451 165.008 59.5361C165.008 55.5778 162.627 53.5986 157.864 53.5986C155.984 53.5986 154.166 53.7347 152.409 54.0068C150.665 54.279 149.286 54.5758 148.271 54.8975C147.257 55.2191 146.323 55.516 145.47 55.7881C144.616 56.0602 144.053 56.1963 143.781 56.1963C143.163 56.1963 142.854 55.9736 142.854 55.5283C142.854 55.083 143.274 54.6315 144.115 54.1738C144.969 53.7038 145.94 53.2523 147.028 52.8193C148.117 52.374 149.465 51.9102 151.073 51.4277C154.722 50.3145 158.674 49.7578 162.93 49.7578C168.546 49.7578 172.368 51.0072 174.396 53.5059C175.497 54.8542 176.048 56.4808 176.048 58.3857C176.048 61.9977 174.545 64.9788 171.539 67.3291C168.979 69.333 165.651 70.6071 161.557 71.1514C160.357 71.3122 158.984 71.3926 157.438 71.3926C155.904 71.3926 154.63 71.2874 153.615 71.0771C153.096 72.7471 152.688 74.0212 152.391 74.8994C152.106 75.7777 151.785 76.4827 151.426 77.0146C151.067 77.5465 150.684 77.9671 150.275 78.2764C149.88 78.5856 149.372 78.8206 148.754 78.9814C147.777 79.2412 146.472 79.3711 144.839 79.3711C143.218 79.3711 141.678 79.1917 140.219 78.833C138.759 78.4743 137.603 78.0352 136.749 77.5156C135.883 76.9961 135.45 76.4889 135.45 75.9941C135.45 75.7096 135.574 75.4808 135.821 75.3076C136.069 75.1344 136.353 75.0479 136.675 75.0479C137.813 75.0479 138.654 74.8685 139.198 74.5098C139.755 74.1387 140.287 73.4583 140.794 72.4688C141.313 71.4792 141.827 70.3288 142.334 69.0176C142.854 67.694 143.336 66.4694 143.781 65.3438C144.227 64.2057 144.734 63.0492 145.303 61.874C146.552 59.3011 148.03 57.6126 149.737 56.8086C150.566 56.4128 151.648 56.1097 152.984 55.8994C154.32 55.6768 155.366 55.5654 156.12 55.5654C156.887 55.5654 157.382 55.5778 157.604 55.6025C157.84 55.6149 158.075 55.652 158.31 55.7139C158.78 55.8376 159.015 56.0973 159.015 56.4932C159.015 56.7653 158.959 57.0189 158.848 57.2539C158.749 57.4766 158.495 57.9281 158.087 58.6084ZM182.004 59.9072L190.799 59.7031C191.12 59.7031 191.362 59.8021 191.522 60C191.683 60.1855 191.764 60.3587 191.764 60.5195C191.764 60.6803 191.72 60.9463 191.634 61.3174C191.547 61.6885 191.436 62.14 191.3 62.6719C191.164 63.1914 191.077 63.5254 191.04 63.6738C192.005 62.5234 193.211 61.5091 194.658 60.6309C196.105 59.7526 197.38 59.3135 198.48 59.3135C200.818 59.3135 201.987 59.8206 201.987 60.835C201.987 61.8369 201.672 63.043 201.041 64.4531C200.41 65.8509 199.816 66.7725 199.26 67.2178C198.988 67.4157 198.654 67.5146 198.258 67.5146C197.874 67.5146 197.516 67.391 197.182 67.1436C195.685 66.0303 194.052 65.4736 192.283 65.4736C191.603 65.4736 191.009 65.5231 190.502 65.6221C190.02 67.2796 189.253 69.7165 188.201 72.9326C187.15 76.1364 186.568 77.9238 186.457 78.2949C186.271 78.8763 185.925 79.167 185.418 79.167C183.624 79.167 181.701 79.2598 179.647 79.4453C177.594 79.6432 176.413 79.7422 176.104 79.7422C175.807 79.7422 175.572 79.6556 175.398 79.4824C175.238 79.3216 175.157 79.1299 175.157 78.9072C175.157 78.6722 175.417 77.8434 175.937 76.4209C176.468 74.986 177.05 73.446 177.681 71.8008C178.324 70.1556 178.905 68.3496 179.425 66.3828C179.957 64.416 180.223 62.8018 180.223 61.54L180.204 60.835C180.204 60.2165 180.804 59.9072 182.004 59.9072ZM204.882 77.7568C202.556 76.359 201.394 74.2376 201.394 71.3926C201.394 69.9082 201.697 68.5166 202.303 67.2178C202.921 65.9066 203.762 64.7747 204.826 63.8223C205.902 62.8698 207.152 62.0534 208.574 61.373C211.419 60 214.679 59.3135 218.353 59.3135C225.576 59.3135 229.479 61.6019 230.061 66.1787C230.926 66.4632 231.817 66.6055 232.732 66.6055C233.66 66.6055 234.433 66.5374 235.052 66.4014C235.67 66.2653 236.252 66.0612 236.796 65.7891C237.353 65.5169 237.748 65.3809 237.983 65.3809C238.453 65.3809 238.688 65.6097 238.688 66.0674C238.688 66.5251 238.324 67.0013 237.594 67.4961C236.221 68.4362 234.402 68.9062 232.139 68.9062C231.285 68.9062 230.592 68.863 230.061 68.7764C229.665 71.8936 228.057 74.485 225.236 76.5508C223.888 77.5404 222.23 78.3197 220.264 78.8887C218.309 79.4577 216.281 79.7422 214.178 79.7422C212.087 79.7422 210.294 79.5752 208.797 79.2412C207.3 78.9196 205.995 78.4248 204.882 77.7568ZM211.617 73.0254C211.617 75.3138 212.452 76.458 214.122 76.458C215.186 76.458 216.175 75.8766 217.091 74.7139C218.019 73.5511 218.736 72.11 219.243 70.3906C219.763 68.6712 220.022 66.9209 220.022 65.1396C220.022 63.346 219.398 62.4492 218.148 62.4492C217.06 62.4492 216.002 62.9626 214.976 63.9893C213.961 65.016 213.145 66.3519 212.526 67.9971C211.92 69.6299 211.617 71.306 211.617 73.0254ZM253.699 73.7119C254.256 73.7119 254.534 73.9655 254.534 74.4727C254.534 75.1654 252.963 76.0312 249.821 77.0703C247.867 77.7259 245.82 78.2331 243.68 78.5918C243.395 79.6309 243.012 80.8864 242.529 82.3584C241.812 84.5231 240.742 86.0817 239.319 87.0342C237.897 87.9867 235.949 88.4629 233.475 88.4629C231.013 88.4629 229.046 88.1536 227.574 87.5352C226.622 87.1393 226.146 86.6569 226.146 86.0879C226.146 85.5312 226.467 85.2529 227.11 85.2529L228.372 85.3271C229.312 85.3271 230.24 84.3499 231.155 82.3955C231.7 81.208 232.417 79.2412 233.308 76.4951C235.089 70.9535 236.511 65.7458 237.575 60.8721C237.649 60.501 237.767 60.2412 237.928 60.0928C238.101 59.932 238.447 59.8516 238.967 59.8516L247.984 59.6475C248.306 59.6475 248.566 59.7279 248.764 59.8887C248.974 60.0495 249.079 60.266 249.079 60.5381C249.079 60.7979 248.949 61.2555 248.689 61.9111C248.43 62.5667 248.164 63.2533 247.892 63.9707C247.632 64.6882 247.372 65.4427 247.112 66.2344C246.865 67.026 246.661 67.6693 246.5 68.1641C246.339 68.6465 246.135 69.3392 245.888 70.2422C245.64 71.1452 245.479 71.7389 245.405 72.0234C245.331 72.2956 245.158 72.9512 244.886 73.9902C244.626 75.0169 244.478 75.5983 244.44 75.7344C247.285 75.5612 249.753 75.0788 251.844 74.2871C252.846 73.9036 253.464 73.7119 253.699 73.7119ZM251.176 52.8379C251.176 54.1615 250.44 55.318 248.968 56.3076C247.508 57.2848 245.962 57.7734 244.329 57.7734C242.709 57.7734 241.447 57.4456 240.544 56.79C239.641 56.1221 239.189 55.3118 239.189 54.3594C239.189 53.4069 239.536 52.541 240.229 51.7617C240.921 50.9824 241.818 50.3701 242.919 49.9248C244.032 49.4795 245.238 49.2568 246.537 49.2568C247.836 49.2568 248.931 49.6032 249.821 50.2959C250.724 50.9762 251.176 51.8236 251.176 52.8379ZM282.422 73.7119C282.855 73.7119 283.071 73.916 283.071 74.3242C283.071 74.7201 282.774 75.0911 282.181 75.4375C281.599 75.7715 280.876 76.1364 280.01 76.5322C279.144 76.9157 277.95 77.3734 276.429 77.9053C272.928 79.1299 268.976 79.7422 264.572 79.7422C256.21 79.7422 252.029 77.1693 252.029 72.0234C252.029 69.5124 252.821 67.2858 254.404 65.3438C256 63.3893 258.134 61.8988 260.806 60.8721C263.478 59.833 266.391 59.3135 269.545 59.3135C272.699 59.3135 275.006 59.8021 276.466 60.7793C277.938 61.7565 278.674 63.0986 278.674 64.8057C278.674 66.5622 277.969 67.9971 276.559 69.1104C275.161 70.2236 273.299 71.0524 270.974 71.5967C268.636 72.141 265.958 72.5244 262.939 72.7471C263.137 74.6644 264.51 75.8581 267.059 76.3281C267.714 76.4395 268.407 76.4951 269.137 76.4951C272.031 76.4951 276.206 75.623 281.661 73.8789C281.995 73.7676 282.249 73.7119 282.422 73.7119ZM262.958 70.7061C265.11 70.1123 266.811 69.2031 268.061 67.9785C269.31 66.7539 269.935 65.2757 269.935 63.5439C269.935 63.0863 269.786 62.7214 269.489 62.4492C269.192 62.1771 268.741 62.041 268.135 62.041C267.541 62.041 266.916 62.3008 266.261 62.8203C265.618 63.3398 265.073 64.0202 264.628 64.8613C263.688 66.6055 263.131 68.5537 262.958 70.7061ZM292.33 66.8838C291.761 68.4053 291.477 69.8031 291.477 71.0771C291.477 72.3512 291.606 73.3037 291.866 73.9346C292.126 74.5531 292.516 75.0293 293.035 75.3633C294.804 76.4766 298.305 76.5384 303.537 75.5488C306.023 75.0788 307.829 74.6582 308.955 74.2871C310.093 73.9036 310.761 73.7119 310.959 73.7119C311.392 73.7119 311.608 73.9222 311.608 74.3428C311.608 74.7633 311.281 75.1901 310.625 75.623C308.893 76.7487 306.45 77.7197 303.296 78.5361C300.142 79.3402 296.616 79.7422 292.72 79.7422C288.836 79.7422 285.885 79.0495 283.869 77.6641C281.853 76.2786 280.845 74.3613 280.845 71.9121C280.845 70.3906 281.16 68.9557 281.791 67.6074C282.434 66.2591 283.306 65.0902 284.407 64.1006C285.521 63.0986 286.813 62.2327 288.285 61.5029C291.229 60.0433 294.569 59.3135 298.305 59.3135C302.659 59.3135 305.714 59.8145 307.471 60.8164C307.669 60.9772 307.768 61.2803 307.768 61.7256C307.768 62.1585 307.576 62.8822 307.192 63.8965C306.809 64.9108 306.302 65.8509 305.671 66.7168C305.052 67.5827 304.483 68.0156 303.964 68.0156C303.444 68.0156 303.03 67.7373 302.721 67.1807C302.411 66.624 302.152 66.1725 301.941 65.8262C301.731 65.4674 301.44 65.0469 301.069 64.5645C300.698 64.082 300.346 63.7171 300.012 63.4697C299.69 63.2223 299.294 63.0059 298.824 62.8203C298.354 62.6348 297.779 62.542 297.099 62.542C296.431 62.542 295.757 62.7461 295.076 63.1543C294.408 63.5501 293.858 64.0697 293.425 64.7129C292.992 65.3438 292.627 66.0674 292.33 66.8838ZM326.471 60.1113L331.351 59.4805C332.266 59.4805 332.724 59.8392 332.724 60.5566C332.724 61.2741 332.291 61.7256 331.425 61.9111C330.559 62.0843 328.604 62.3193 325.562 62.6162C325.141 63.7171 324.51 65.2448 323.669 67.1992C321.95 71.207 321.09 73.613 321.09 74.417C321.09 75.2952 321.634 75.7344 322.723 75.7344C326.236 75.7344 329.39 75.1468 332.186 73.9717C332.594 73.7985 332.915 73.7119 333.15 73.7119C333.608 73.7119 333.837 73.916 333.837 74.3242C333.837 74.7324 333.54 75.1344 332.946 75.5303C331.128 76.7301 328.388 77.7321 324.727 78.5361C321.065 79.3402 317.688 79.7422 314.596 79.7422C312.839 79.7422 311.497 79.4701 310.569 78.9258C309.642 78.3691 309.178 77.6084 309.178 76.6436C309.178 75.6663 309.821 73.8418 311.107 71.1699C312.555 68.1764 313.594 65.5479 314.225 63.2842C313.458 63.3213 312.926 63.3398 312.629 63.3398C311.899 63.3398 311.534 63.043 311.534 62.4492C311.534 62.0163 311.652 61.7256 311.887 61.5771C312.122 61.4287 312.363 61.3236 312.61 61.2617C312.87 61.1999 313.087 61.1628 313.26 61.1504C313.445 61.1257 313.699 61.1009 314.021 61.0762C314.342 61.0514 314.577 61.0329 314.726 61.0205C314.886 60.0804 314.967 59.196 314.967 58.3672L314.948 57.6621C314.948 57.1055 315.653 56.7282 317.063 56.5303C317.534 56.4684 319.012 56.1592 321.498 55.6025C323.984 55.0459 325.506 54.7676 326.062 54.7676C326.953 54.7676 327.398 55.0768 327.398 55.6953C327.398 56.7591 327.089 58.2311 326.471 60.1113ZM354.043 79.1484L346.64 79.334C345.415 79.334 344.803 78.9134 344.803 78.0723C344.803 77.6888 344.964 77.3548 345.285 77.0703C345.619 76.7858 346.052 76.4642 346.584 76.1055C347.116 75.7344 347.598 75.252 348.031 74.6582C348.464 74.0521 348.94 73.0378 349.46 71.6152C349.992 70.1803 350.425 68.7826 350.759 67.4219C351.823 63.1048 352.583 60.2969 353.041 58.998C353.511 57.6868 353.864 56.7344 354.099 56.1406C354.346 55.5345 354.612 54.9779 354.896 54.4707C355.193 53.9635 355.478 53.5182 355.75 53.1348C356.022 52.7513 356.344 52.4111 356.715 52.1143C357.086 51.805 357.438 51.5514 357.772 51.3535C358.119 51.1432 358.539 50.9639 359.034 50.8154C359.529 50.6546 360.005 50.5309 360.463 50.4443C360.921 50.3577 361.49 50.2897 362.17 50.2402C363.197 50.166 364.563 50.1289 366.271 50.1289C367.978 50.1289 369.245 50.2093 370.074 50.3701C370.903 50.5309 371.317 50.8711 371.317 51.3906C371.317 51.8112 370.841 52.3122 369.889 52.8936C368.825 53.5492 367.885 54.613 367.068 56.085C366.19 57.693 365.504 59.2021 365.009 60.6123C364.514 62.0101 364.124 63.1357 363.84 63.9893C363.555 64.8428 363.209 65.8942 362.801 67.1436C362.393 68.3929 362.046 69.432 361.762 70.2607C360.599 73.5882 359.009 75.6911 356.993 76.5693C360.11 76.4085 362.689 75.8581 364.73 74.918C365.844 74.4108 366.796 73.9346 367.588 73.4893C368.392 73.0439 369.289 72.3822 370.278 71.5039C371.577 70.3411 372.734 69.234 373.748 68.1826C374.762 67.1188 375.313 66.5436 375.399 66.457C375.721 66.123 376.111 65.9561 376.568 65.9561C377.026 65.9561 377.397 66.0674 377.682 66.29C377.966 66.5127 378.108 66.8034 378.108 67.1621C378.108 68.5846 377.651 70.7679 376.735 73.7119C376.414 74.7262 376.092 75.555 375.771 76.1982C375.449 76.8415 375.035 77.4167 374.527 77.9238C373.562 78.8887 372.01 79.3711 369.87 79.3711L354.043 79.1484ZM394.028 75.0293C396.354 75.0293 398.296 73.248 399.854 69.6855C400.572 68.0527 400.931 66.7292 400.931 65.7148C400.931 64.7005 400.757 64.0016 400.411 63.6182C400.077 63.2347 399.409 63.043 398.407 63.043C397.418 63.043 396.341 63.5068 395.179 64.4346C394.028 65.3499 393.101 66.5065 392.396 67.9043C391.69 69.3021 391.338 70.5638 391.338 71.6895C391.338 72.8027 391.585 73.6377 392.08 74.1943C392.575 74.751 393.224 75.0293 394.028 75.0293ZM403.677 59.3135L412.175 59.7031C412.496 59.7031 412.738 59.8021 412.898 60C413.059 60.1855 413.14 60.3958 413.14 60.6309C413.14 61.5339 412.762 62.9749 412.008 64.9541C411.266 66.9209 410.517 68.8753 409.763 70.8174C409.021 72.7471 408.649 74.0273 408.649 74.6582C408.649 75.2767 408.742 75.6725 408.928 75.8457C409.126 76.0189 409.497 76.1055 410.041 76.1055C410.585 76.1055 411.575 75.8457 413.01 75.3262C414.457 74.7943 415.434 74.3923 415.941 74.1201C416.461 73.848 416.857 73.7119 417.129 73.7119C417.611 73.7119 417.853 73.9284 417.853 74.3613C417.853 75.2767 415.997 76.4766 412.286 77.9609C411.037 78.4681 409.528 78.8887 407.759 79.2227C406.002 79.569 404.215 79.7422 402.396 79.7422C399.366 79.7422 397.541 78.7773 396.923 76.8477C394.993 78.7773 392.396 79.7422 389.13 79.7422C386.891 79.7422 384.998 79.2041 383.452 78.1279C381.77 76.9528 380.929 75.1035 380.929 72.5801C380.929 69.9206 381.714 67.4714 383.285 65.2324C385.005 62.7461 387.305 61.0329 390.188 60.0928C391.783 59.5732 393.496 59.3135 395.327 59.3135C398.135 59.3135 400.318 60.0062 401.877 61.3916C401.889 61.3174 401.896 61.1999 401.896 61.0391L401.877 60.2412C401.877 59.6227 402.477 59.3135 403.677 59.3135ZM452.067 73.7119C452.525 73.7119 452.754 73.9284 452.754 74.3613C452.754 74.7819 452.525 75.153 452.067 75.4746C451.622 75.7962 450.96 76.1673 450.082 76.5879C449.204 76.9961 448.109 77.4476 446.798 77.9424C445.499 78.4372 443.99 78.8577 442.271 79.2041C440.563 79.5628 438.931 79.7422 437.372 79.7422C433.698 79.7422 431.861 78.901 431.861 77.2188C431.861 76.1302 432.48 74.1882 433.717 71.3926C434.966 68.5846 435.591 66.6921 435.591 65.7148C435.591 64.6139 434.731 64.0635 433.012 64.0635C432.232 64.0635 431.348 64.1624 430.358 64.3604C429.888 66.0179 429.047 68.6527 427.835 72.2646C426.635 75.8766 425.955 77.93 425.794 78.4248C425.646 78.9196 425.318 79.167 424.811 79.167L415.255 79.3711C415.119 79.3711 414.964 79.2845 414.791 79.1113C414.63 78.9505 414.55 78.7588 414.55 78.5361C414.55 78.3011 414.81 77.4909 415.329 76.1055C415.861 74.7077 416.442 73.2109 417.073 71.6152C417.716 70.0072 418.298 68.2445 418.817 66.3271C419.349 64.3975 419.615 62.8018 419.615 61.54L419.597 60.835C419.597 60.2165 420.197 59.9072 421.396 59.9072L430.191 59.7031C430.513 59.7031 430.754 59.8021 430.915 60C431.076 60.1855 431.156 60.4206 431.156 60.7051C431.156 60.9772 431.088 61.4225 430.952 62.041C435.306 60.2227 438.881 59.3135 441.677 59.3135C442.864 59.3135 443.947 59.6413 444.924 60.2969C446.012 61.0267 446.557 62.1338 446.557 63.6182C446.557 65.1396 445.981 67.1312 444.831 69.5928C443.681 72.0544 443.105 73.5758 443.105 74.1572C443.105 75.3076 443.563 75.8828 444.479 75.8828C445.06 75.8828 446.049 75.6663 447.447 75.2334C448.857 74.7881 449.896 74.4232 450.564 74.1387C451.245 73.8542 451.746 73.7119 452.067 73.7119ZM463.757 75.0293C466.082 75.0293 468.024 73.248 469.583 69.6855C470.3 68.0527 470.659 66.7292 470.659 65.7148C470.659 64.7005 470.486 64.0016 470.14 63.6182C469.806 63.2347 469.138 63.043 468.136 63.043C467.146 63.043 466.07 63.5068 464.907 64.4346C463.757 65.3499 462.829 66.5065 462.124 67.9043C461.419 69.3021 461.066 70.5638 461.066 71.6895C461.066 72.8027 461.314 73.6377 461.809 74.1943C462.303 74.751 462.953 75.0293 463.757 75.0293ZM473.405 59.3135L481.903 59.7031C482.225 59.7031 482.466 59.8021 482.627 60C482.788 60.1855 482.868 60.3958 482.868 60.6309C482.868 61.5339 482.491 62.9749 481.736 64.9541C480.994 66.9209 480.246 68.8753 479.491 70.8174C478.749 72.7471 478.378 74.0273 478.378 74.6582C478.378 75.2767 478.471 75.6725 478.656 75.8457C478.854 76.0189 479.225 76.1055 479.77 76.1055C480.314 76.1055 481.303 75.8457 482.738 75.3262C484.186 74.7943 485.163 74.3923 485.67 74.1201C486.189 73.848 486.585 73.7119 486.857 73.7119C487.34 73.7119 487.581 73.9284 487.581 74.3613C487.581 75.2767 485.726 76.4766 482.015 77.9609C480.765 78.4681 479.256 78.8887 477.487 79.2227C475.731 79.569 473.943 79.7422 472.125 79.7422C469.094 79.7422 467.27 78.7773 466.651 76.8477C464.722 78.7773 462.124 79.7422 458.858 79.7422C456.619 79.7422 454.727 79.2041 453.181 78.1279C451.498 76.9528 450.657 75.1035 450.657 72.5801C450.657 69.9206 451.443 67.4714 453.014 65.2324C454.733 62.7461 457.034 61.0329 459.916 60.0928C461.512 59.5732 463.225 59.3135 465.056 59.3135C467.864 59.3135 470.047 60.0062 471.605 61.3916C471.618 61.3174 471.624 61.1999 471.624 61.0391L471.605 60.2412C471.605 59.6227 472.205 59.3135 473.405 59.3135Z" fill="#F2F2F2"/>
<circle cx="66.0749" cy="64.9251" r="63.6257" fill="#303238"/>
<path d="M21.4441 85.0763C17.2375 77.7902 15.1341 74.1472 14.3109 70.2741C13.5825 66.8472 13.5825 63.3054 14.3109 59.8785C15.1341 56.0054 17.2375 52.3624 21.4441 45.0763L26.4202 36.4573C30.6269 29.1712 32.7302 25.5282 35.6727 22.8787C38.2763 20.5344 41.3436 18.7635 44.6756 17.6809C48.4414 16.4573 52.648 16.4573 61.0613 16.4573H71.0136C79.4268 16.4573 83.6335 16.4573 87.3993 17.6809C90.7313 18.7635 93.7985 20.5344 96.4021 22.8787C99.3447 25.5282 101.448 29.1712 105.655 36.4573L110.631 45.0763C114.837 52.3624 116.941 56.0054 117.764 59.8785C118.492 63.3054 118.492 66.8472 117.764 70.2741C116.941 74.1472 114.837 77.7902 110.631 85.0763L105.655 93.6953C101.448 100.981 99.3447 104.624 96.4021 107.274C93.7985 109.618 90.7313 111.389 87.3993 112.472C83.6335 113.695 79.4268 113.695 71.0136 113.695H61.0612C52.648 113.695 48.4414 113.695 44.6756 112.472C41.3436 111.389 38.2763 109.618 35.6727 107.274C32.7302 104.624 30.6269 100.981 26.4202 93.6953L21.4441 85.0763Z" fill="#AEE9E0"/>
<path d="M35.1606 82.9628C28.7916 71.9314 28.7916 58.3402 35.1606 47.3088V47.3088C41.5295 36.2775 53.2998 29.4819 66.0378 29.4819V29.4819C78.7757 29.4819 90.546 36.2775 96.915 47.3088V47.3088C103.284 58.3402 103.284 71.9314 96.9149 82.9628V82.9628C90.546 93.9941 78.7757 100.79 66.0378 100.79V100.79C53.2998 100.79 41.5295 93.9941 35.1606 82.9628V82.9628Z" fill="#303238"/>
<path d="M55.639 58.2183C54.944 59.3348 53.8047 62.4167 52.221 67.4639C52.597 67.4867 53.1552 67.498 53.8958 67.498C56.1744 67.498 58.0942 66.7176 59.6551 65.1567C61.2273 63.5959 62.0135 61.5679 62.0135 59.0728C62.0135 55.4269 59.8203 53.604 55.4339 53.604C53.7021 53.604 52.0273 53.7293 50.4095 53.98C48.803 54.2306 47.5327 54.5041 46.5984 54.8003C45.6642 55.0965 44.804 55.37 44.0179 55.6206C43.2317 55.8713 42.7133 55.9966 42.4627 55.9966C41.893 55.9966 41.6082 55.7915 41.6082 55.3813C41.6082 54.9712 41.9956 54.5553 42.7703 54.1338C43.5564 53.7008 44.4508 53.285 45.4534 52.8862C46.456 52.4761 47.6979 52.0488 49.179 51.6045C52.54 50.5791 56.1801 50.0664 60.0994 50.0664C65.2719 50.0664 68.7924 51.2171 70.6609 53.5186C71.6749 54.7604 72.1819 56.2586 72.1819 58.0132C72.1819 61.34 70.7977 64.0858 68.0291 66.2505C65.6707 68.0962 62.6059 69.2697 58.8348 69.771C57.7296 69.9191 56.465 69.9932 55.0408 69.9932C53.6281 69.9932 52.4546 69.8963 51.5203 69.7026C51.0418 71.2407 50.6658 72.4142 50.3924 73.2231C50.1303 74.0321 49.8341 74.6815 49.5037 75.1714C49.1733 75.6613 48.8201 76.0487 48.4441 76.3335C48.0796 76.6183 47.6124 76.8348 47.0428 76.9829C46.1427 77.2222 44.9407 77.3418 43.4368 77.3418C41.9443 77.3418 40.5258 77.1766 39.1814 76.8462C37.837 76.5158 36.7718 76.1113 35.9856 75.6328C35.1881 75.1543 34.7894 74.6872 34.7894 74.2314C34.7894 73.9694 34.9033 73.7586 35.1312 73.5991C35.359 73.4396 35.6211 73.3599 35.9173 73.3599C36.9655 73.3599 37.7402 73.1947 38.2415 72.8643C38.7542 72.5225 39.2441 71.8958 39.7112 70.9844C40.1897 70.0729 40.6626 69.0133 41.1297 67.8057C41.6082 66.5866 42.0525 65.4587 42.4627 64.4219C42.8729 63.3737 43.34 62.3084 43.8641 61.2261C45.0148 58.8563 46.3763 57.3011 47.9485 56.5605C48.7119 56.196 49.7088 55.9168 50.9393 55.7231C52.1697 55.5181 53.1325 55.4155 53.8274 55.4155C54.5338 55.4155 54.9896 55.4269 55.1946 55.4497C55.4111 55.4611 55.6276 55.4953 55.844 55.5522C56.277 55.6662 56.4935 55.9054 56.4935 56.27C56.4935 56.5207 56.4422 56.7542 56.3396 56.9707C56.2485 57.1758 56.0149 57.5916 55.639 58.2183ZM75.6211 77.1367L68.8022 77.3076C67.6743 77.3076 67.1104 76.9202 67.1104 76.1455C67.1104 75.7923 67.2585 75.4847 67.5547 75.2227C67.8623 74.9606 68.2611 74.6644 68.751 74.334C69.2409 73.9922 69.6852 73.5479 70.084 73.001C70.4827 72.4427 70.9214 71.5085 71.3999 70.1982C71.8898 68.8766 72.2886 67.5892 72.5962 66.3359C73.576 62.3597 74.2767 59.7734 74.6982 58.5771C75.1312 57.3695 75.4559 56.4922 75.6724 55.9453C75.9002 55.387 76.1452 54.8743 76.4072 54.4072C76.6807 53.9401 76.9427 53.5299 77.1934 53.1768C77.444 52.8236 77.7402 52.5103 78.082 52.2368C78.4238 51.952 78.7485 51.7184 79.0562 51.5361C79.3752 51.3424 79.7625 51.1772 80.2183 51.0405C80.674 50.8924 81.1126 50.7785 81.5342 50.6987C81.9557 50.619 82.4798 50.5563 83.1064 50.5107C84.0521 50.4424 85.311 50.4082 86.8833 50.4082C88.4556 50.4082 89.6234 50.4823 90.3867 50.6304C91.1501 50.7785 91.5317 51.0918 91.5317 51.5703C91.5317 51.9577 91.0931 52.4191 90.2158 52.9546C89.236 53.5584 88.3701 54.5382 87.6182 55.894C86.8092 57.3752 86.1769 58.7651 85.7212 60.064C85.2655 61.3514 84.9066 62.3882 84.6445 63.1743C84.3825 63.9604 84.0635 64.9289 83.6875 66.0796C83.3115 67.2303 82.9925 68.1873 82.7305 68.9507C81.6595 72.0155 80.1955 73.9523 78.3384 74.7612C81.2095 74.6131 83.585 74.1061 85.4648 73.2402C86.4902 72.7731 87.3675 72.3345 88.0967 71.9243C88.8372 71.5142 89.6632 70.9046 90.5747 70.0957C91.771 69.0247 92.8363 68.005 93.7705 67.0366C94.7048 66.0568 95.2118 65.527 95.2915 65.4473C95.5877 65.1396 95.9466 64.9858 96.3682 64.9858C96.7897 64.9858 97.1315 65.0884 97.3936 65.2935C97.6556 65.4985 97.7866 65.7663 97.7866 66.0967C97.7866 67.4069 97.3651 69.4178 96.522 72.1294C96.2257 73.0636 95.9295 73.827 95.6333 74.4194C95.3371 75.0119 94.9554 75.5417 94.4883 76.0088C93.5996 76.8975 92.1698 77.3418 90.1987 77.3418L75.6211 77.1367Z" fill="#F2F2F2"/>
</svg>
